<?xml version="1.0" standalone="no"?>
<!DOCTYPE svg PUBLIC "-//W3C//DTD SVG 20010904//EN"
 "http://www.w3.org/TR/2001/REC-SVG-20010904/DTD/svg10.dtd">
<svg version="1.0" xmlns="http://www.w3.org/2000/svg"
 width="554.000000pt" height="298.000000pt" viewBox="0 0 554.000000 298.000000"
 preserveAspectRatio="xMidYMid meet">

<g transform="translate(0.000000,298.000000) scale(0.100000,-0.100000)"
fill="#000000" stroke="none">
<path d="M783 2493 c-16 -47 -86 -223 -103 -263 -30 -69 -432 -1083 -438
-1102 -4 -17 7 -18 131 -18 l136 0 21 58 c38 99 266 731 317 874 34 98 53 138
64 138 12 0 56 -112 174 -442 87 -244 196 -549 242 -678 46 -129 94 -263 105
-297 l22 -63 1915 0 1916 0 37 83 c20 45 33 85 30 88 -4 4 -830 10 -1837 14
-1385 5 -1833 9 -1841 18 -6 7 -59 134 -117 282 -58 149 -182 464 -277 700
-94 237 -188 473 -209 525 l-37 95 -122 3 c-110 2 -123 1 -129 -15z"/>
<path d="M4704 2480 c-164 -24 -285 -107 -347 -238 -30 -64 -32 -73 -32 -187
0 -112 2 -124 27 -172 60 -114 141 -163 353 -214 245 -59 273 -70 319 -132 27
-37 27 -122 -1 -169 -72 -124 -353 -155 -614 -67 -48 16 -90 29 -93 29 -4 0
-5 -48 -4 -107 l3 -108 55 -22 c100 -39 205 -56 355 -56 195 0 324 31 426 105
118 84 164 190 157 357 -8 213 -100 294 -418 372 -238 59 -296 95 -307 194
-10 85 41 161 124 185 108 32 304 17 457 -34 39 -13 72 -23 73 -22 8 7 6 207
-2 215 -18 17 -177 59 -270 70 -99 12 -183 12 -261 1z"/>
<path d="M1820 1741 l0 -702 128 3 127 3 3 268 2 267 89 0 88 0 39 -57 c161
-236 324 -465 339 -475 13 -10 293 -10 298 0 3 4 -32 57 -77 117 -179 239
-325 448 -321 455 3 5 22 14 43 21 109 35 215 129 254 228 31 80 31 231 -1
314 -28 72 -106 154 -182 190 -115 56 -148 60 -501 65 l-328 4 0 -701z m569
479 c93 -13 151 -46 179 -100 43 -85 20 -200 -49 -253 -62 -46 -122 -60 -286
-65 l-153 -4 0 216 0 216 123 0 c67 0 151 -5 186 -10z"/>
<path d="M3135 2354 c-5 -56 -4 -94 4 -110 l11 -24 439 0 c513 0 464 -14 459
128 l-3 87 -452 3 -451 2 -7 -86z"/>
<path d="M3137 1842 c-3 -20 -4 -203 -3 -407 l1 -370 473 -3 472 -2 0 105 0
105 -370 0 -370 0 0 200 0 200 305 0 305 0 0 105 0 105 -404 0 -404 -1 -5 -37z"/>
<path d="M2095 560 c-3 -5 -1 -10 4 -10 6 0 11 -13 11 -29 0 -17 5 -33 10 -36
6 -4 10 8 10 29 0 20 5 36 10 36 6 0 10 5 10 10 0 6 -11 10 -24 10 -14 0 -28
-4 -31 -10z"/>
<path d="M2192 563 c-41 -16 -32 -83 11 -83 45 0 62 43 29 73 -20 18 -20 18
-40 10z m33 -43 c0 -16 -6 -26 -18 -28 -19 -4 -32 20 -23 44 9 25 41 13 41
-16z"/>
<path d="M2270 525 l0 -50 17 33 c15 31 15 34 0 50 -16 15 -17 13 -17 -33z"/>
<path d="M2329 548 c-7 -13 -16 -26 -22 -29 -5 -4 -7 -15 -3 -25 7 -17 9 -17
21 6 14 25 14 25 15 3 0 -13 5 -23 10 -23 13 0 13 77 1 85 -6 3 -15 -5 -22
-17z"/>
<path d="M2460 560 c0 -5 5 -10 10 -10 6 0 10 -16 10 -36 0 -21 4 -33 10 -29
6 3 10 19 10 36 0 16 5 29 11 29 5 0 7 5 4 10 -3 6 -17 10 -31 10 -13 0 -24
-4 -24 -10z"/>
<path d="M2586 554 c-31 -31 -13 -74 31 -74 43 0 52 59 12 80 -23 13 -25 13
-43 -6z m49 -34 c0 -16 -6 -26 -18 -28 -19 -4 -32 20 -23 44 9 25 41 13 41
-16z"/>
<path d="M2853 563 c-15 -6 -18 -83 -3 -83 6 0 10 7 10 15 0 20 10 19 26 -2 7
-10 16 -15 20 -11 4 4 2 14 -4 21 -9 10 -8 17 1 26 9 10 8 15 -7 27 -21 15
-24 15 -43 7z m37 -23 c0 -5 -7 -10 -15 -10 -8 0 -15 5 -15 10 0 6 7 10 15 10
8 0 15 -4 15 -10z"/>
<path d="M2947 558 c-17 -9 -22 -34 -11 -62 8 -20 48 -21 64 -2 29 36 -13 87
-53 64z m46 -20 c6 -18 -11 -48 -27 -48 -17 0 -27 25 -20 45 7 18 41 20 47 3z"/>
<path d="M3035 562 c-3 -3 -5 -23 -5 -44 0 -35 2 -38 29 -38 33 0 39 10 33 51
-3 19 -11 28 -28 32 -13 2 -26 2 -29 -1z m35 -22 c0 -5 -4 -10 -10 -10 -5 0
-10 5 -10 10 0 6 5 10 10 10 6 0 10 -4 10 -10z m5 -31 c10 -15 -1 -23 -20 -15
-9 3 -13 10 -10 16 8 13 22 13 30 -1z"/>
<path d="M3132 554 c-40 -28 -19 -79 30 -72 18 2 24 10 26 35 4 41 -24 60 -56
37z m43 -34 c0 -16 -6 -26 -18 -28 -19 -4 -32 20 -23 44 9 25 41 13 41 -16z"/>
<path d="M3210 558 c0 -4 4 -8 9 -8 6 0 12 -17 14 -37 l4 -38 1 38 c1 20 7 37
12 37 6 0 10 4 10 10 0 5 -11 9 -25 8 -14 -1 -25 -6 -25 -10z"/>
<path d="M3342 554 c-37 -26 -22 -75 23 -73 19 0 19 1 -2 9 -30 12 -32 60 -3
60 11 0 20 5 20 10 0 14 -12 12 -38 -6z"/>
<path d="M3410 550 c-8 -15 -6 -21 10 -30 25 -13 26 -27 3 -33 -11 -3 -7 -5
10 -6 21 -1 27 3 27 20 0 12 -8 23 -20 26 -23 6 -27 23 -5 23 8 0 15 5 15 10
0 18 -29 11 -40 -10z"/>
<path d="M3520 560 c-7 -4 -10 -15 -7 -24 3 -8 2 -18 -3 -21 -20 -12 3 -35 36
-35 27 0 34 4 34 20 0 11 -6 20 -14 20 -9 0 -12 7 -9 19 5 21 -17 34 -37 21z
m25 -60 c3 -5 2 -10 -4 -10 -5 0 -13 5 -16 10 -3 6 -2 10 4 10 5 0 13 -4 16
-10z"/>
<path d="M3637 563 c-4 -3 -7 -24 -7 -45 0 -37 1 -38 33 -37 23 1 26 3 10 6
-27 5 -31 30 -5 36 16 4 16 5 0 6 -22 1 -24 21 -3 21 8 0 15 5 15 10 0 11 -33
14 -43 3z"/>
<path d="M3832 559 c-19 -7 -23 -15 -20 -41 3 -29 7 -33 36 -36 29 -3 32 -1
32 22 0 16 -6 26 -14 26 -9 0 -12 -7 -9 -20 7 -27 -23 -27 -32 0 -8 26 1 40
26 40 10 0 19 5 19 10 0 12 -7 12 -38 -1z"/>
<path d="M4037 563 c-4 -3 -7 -24 -7 -45 0 -37 1 -38 33 -37 23 1 26 3 10 6
-27 5 -31 30 -5 36 16 4 16 5 0 6 -22 1 -24 21 -3 21 8 0 15 5 15 10 0 11 -33
14 -43 3z"/>
<path d="M4115 561 c-3 -2 -5 -22 -5 -43 0 -37 1 -38 33 -37 23 1 26 3 10 6
-27 5 -31 30 -5 36 16 4 16 5 0 6 -22 1 -24 21 -3 21 8 0 15 4 15 9 0 10 -37
11 -45 2z"/>
<path d="M4197 563 c-11 -10 -8 -83 3 -83 6 0 10 9 10 21 0 21 0 21 21 -2 17
-19 20 -20 15 -5 -4 10 -2 24 4 31 19 22 -33 59 -53 38z m43 -23 c0 -5 -7 -10
-15 -10 -8 0 -15 5 -15 10 0 6 7 10 15 10 8 0 15 -4 15 -10z"/>
<path d="M4428 556 c-35 -26 -16 -76 29 -76 18 0 23 6 23 25 0 16 -6 25 -16
25 -13 0 -14 -3 -5 -14 13 -16 -2 -32 -19 -21 -18 11 -11 47 10 52 11 3 17 9
14 14 -7 12 -16 11 -36 -5z"/>
<path d="M4543 563 c-20 -8 -15 -40 7 -46 27 -7 25 -24 -2 -30 -16 -4 -13 -5
7 -4 36 2 41 27 8 42 -29 12 -30 25 -2 25 11 0 17 5 14 10 -7 11 -13 11 -32 3z"/>
<path d="M4621 553 c-37 -26 -20 -73 26 -73 44 0 55 72 13 83 -10 3 -28 -2
-39 -10z m44 -33 c0 -38 -39 -35 -43 3 -3 25 0 28 20 25 17 -2 23 -9 23 -28z"/>
<path d="M4870 560 c0 -5 5 -10 10 -10 6 0 10 -13 10 -29 0 -17 5 -33 10 -36
6 -4 10 8 10 29 0 20 5 36 10 36 6 0 10 5 10 10 0 6 -13 10 -30 10 -16 0 -30
-4 -30 -10z"/>
<path d="M4957 563 c-11 -10 -8 -83 3 -83 6 0 10 20 10 45 0 46 -2 50 -13 38z"/>
<path d="M5012 563 c-7 -3 -17 -13 -22 -24 -23 -43 39 -82 70 -45 26 32 -8 82
-48 69z m36 -40 c-3 -31 -34 -44 -44 -19 -9 24 3 46 26 46 17 0 21 -5 18 -27z"/>
<path d="M5203 563 c-20 -8 -15 -40 7 -46 27 -7 25 -24 -2 -30 -16 -4 -13 -5
7 -4 40 3 44 29 8 47 -22 11 -24 14 -10 17 9 3 17 9 17 14 0 10 -8 10 -27 2z"/>
<path d="M1916 524 c-19 -41 -15 -54 10 -30 15 16 18 16 37 -1 20 -17 20 -17
14 0 -4 11 -10 30 -13 43 -9 34 -28 30 -48 -12z"/>
<path d="M2003 525 c2 -37 4 -40 32 -40 27 0 30 3 33 38 2 23 -1 37 -9 37 -7
0 -9 -8 -6 -21 3 -11 3 -27 0 -35 -9 -24 -32 -16 -39 14 -10 46 -13 49 -11 7z"/>
<path d="M2390 534 c-6 -14 -10 -33 -10 -42 0 -13 2 -13 14 3 14 19 15 19 35
1 25 -23 26 -17 7 29 -18 42 -33 45 -46 9z"/>
<path d="M2543 520 c0 -25 2 -35 4 -22 2 12 2 32 0 45 -2 12 -4 2 -4 -23z"/>
<path d="M2670 520 c0 -22 5 -40 10 -40 6 0 10 12 10 28 l1 27 20 -27 c28 -38
39 -35 39 12 0 22 -4 40 -10 40 -5 0 -7 -6 -4 -14 9 -23 -14 -28 -26 -6 -19
35 -40 25 -40 -20z"/>
<path d="M3288 530 c-3 -16 -1 -35 4 -42 4 -8 8 4 8 30 0 49 -6 55 -12 12z"/>
<path d="M3710 519 c0 -24 4 -38 10 -34 6 3 10 16 10 27 0 19 2 19 21 -6 29
-36 39 -33 39 14 0 22 -4 40 -10 40 -5 0 -10 -9 -10 -20 0 -11 -3 -20 -8 -20
-4 0 -13 9 -20 20 -19 32 -32 24 -32 -21z"/>
<path d="M3900 519 c0 -24 4 -38 10 -34 6 3 10 22 10 41 0 19 -4 34 -10 34 -5
0 -10 -18 -10 -41z"/>
<path d="M3940 519 c0 -23 4 -38 10 -34 5 3 7 12 3 20 -8 22 15 18 29 -5 20
-31 28 -24 27 23 -1 23 -4 32 -6 20 -5 -28 -14 -29 -31 -3 -19 32 -32 24 -32
-21z"/>
<path d="M4270 526 c0 -19 5 -38 10 -41 6 -4 10 10 10 34 0 23 -4 41 -10 41
-5 0 -10 -15 -10 -34z"/>
<path d="M4310 520 c0 -22 5 -40 10 -40 6 0 10 12 10 28 l1 27 20 -27 c28 -38
39 -35 39 12 0 22 -4 40 -10 40 -5 0 -10 -10 -10 -22 l-1 -23 -18 23 c-28 33
-41 27 -41 -18z"/>
<path d="M4703 520 c-1 -39 0 -40 31 -39 23 1 25 3 9 6 -19 4 -23 11 -23 39 0
48 -16 43 -17 -6z"/>
<path d="M4783 525 c2 -37 4 -40 32 -40 28 0 30 3 33 39 2 25 0 36 -8 31 -6
-3 -10 -12 -9 -18 6 -51 -26 -67 -37 -19 -10 46 -13 49 -11 7z"/>
<path d="M5090 520 c0 -23 5 -40 11 -40 7 0 9 11 6 26 l-4 25 26 -25 c15 -14
30 -26 34 -26 4 0 7 18 7 40 0 22 -4 40 -10 40 -5 0 -10 -9 -10 -20 0 -11 -3
-20 -8 -20 -4 0 -13 9 -20 20 -19 31 -32 24 -32 -20z"/>
<path d="M2770 468 c0 -19 2 -20 10 -8 13 19 13 30 0 30 -5 0 -10 -10 -10 -22z"/>
</g>
</svg>
