<svg width="260" height="302" viewBox="0 0 260 302" fill="none" xmlns="http://www.w3.org/2000/svg">
<path d="M154.764 5.32233L126.864 1L116.666 7.09056C99.1432 9.89889 89.9154 12.8337 75.1036 21.8258C57.9488 32.183 51.3687 39.9256 41.0459 54.6362C35.1959 57.5164 31.9077 58.5877 26.0373 60.1373C17.0534 82.4051 18.6772 99.8837 23.1511 132.242C26.5347 134.063 29.8381 134.792 41.0459 134.992C61.6104 164.054 105.965 175.627 126.864 176.251C163.665 178.74 197.827 161.869 204.6 146.191C206.251 143.93 209.361 142.748 216.145 140.69C239.8 102.637 223.101 83.7012 222.88 78.9984C221.46 77.8315 221.29 77.0105 216.145 76.8372C206.265 51.9752 196.985 40.9301 174.583 25.7552C166.129 16.8553 161.776 12.3619 154.764 5.32233Z" fill="#D9D9D9" stroke="#D9D9D9"/>
<path d="M199.04 106.703C189.078 88.4493 155.455 76.1398 110.582 88.3444C85.3454 95.9858 77.8199 120.42 89.4288 132.761C109.01 153.903 140.492 157.695 168.849 149.935C193.52 140.464 208.713 127.933 199.04 106.703Z" fill="#484848" fill-opacity="0.6"/>
<path d="M34.8365 242.511L45.3069 238.288C45.3069 238.288 45.909 245.248 45.8289 256.404C45.7488 267.559 39.3441 264.586 35.3585 260.627C31.3729 256.668 34.8365 242.511 34.8365 242.511Z" fill="#148BFB"/>
<path d="M17.8157 253.417C16.5249 257.481 7.60476 258.052 7.07422 253.8C5.97761 245.01 11.8626 233.739 11.8626 233.739L19.8101 237.275C19.8101 237.275 19.8128 247.129 17.8157 253.417Z" fill="#148BFB"/>
<path d="M31.2208 250.106C31.6413 254.651 23.9998 254.731 23.6182 251.592C22.8295 245.102 26.8751 235.585 26.8751 235.585L32.7285 238.178C32.7285 238.178 30.7702 245.236 31.2208 250.106Z" fill="#148BFB"/>
<path d="M26.0456 182.426C34.2786 174.084 68.2505 186.543 64.6321 207.533C61.0138 228.523 56.5114 235.36 51.0021 242.253C45.4927 249.145 9.2453 237.753 7.61613 229.699C7.60083 206.895 17.8125 190.767 26.0456 182.426Z" fill="#D9D9D9" stroke="#D9D9D9"/>
<path d="M231.832 138.85L223.218 132.018C223.218 132.018 231.089 123.697 235.336 121.105C239.582 118.514 249.89 121.251 243.95 127.938C238.009 134.625 231.832 138.85 231.832 138.85Z" fill="#148BFB"/>
<path d="M252.196 146.814C256.178 145.538 261.867 152.634 258.804 155.535C252.473 161.531 240.075 163.151 240.075 163.151L238.217 154.489C238.217 154.489 246.034 148.788 252.196 146.814Z" fill="#148BFB"/>
<path d="M241.702 137.569C245.061 134.59 249.61 140.905 247.342 143.039C242.656 147.449 232.73 149.585 232.73 149.585L231.352 143.212C231.352 143.212 238.102 140.76 241.702 137.569Z" fill="#148BFB"/>
<path d="M166.142 244.388C165.711 237.629 164.893 231.419 163.086 229.147C161.278 226.874 151.802 224.875 150.203 228.762C148.605 232.649 146.08 238.532 147.409 247.415C148.738 256.298 162.316 263.019 166.142 244.388Z" fill="#B7B6B6" stroke="#B7B6B6"/>
<path d="M101.478 253.697C101.365 246.289 100.795 239.378 98.9214 236.472C97.0473 233.566 86.6904 229.041 84.7168 232.84C82.7431 236.64 79.6387 242.363 80.6291 252.289C81.6195 262.216 96.2515 272.865 101.478 253.697Z" fill="#B7B6B6" stroke="#B7B6B6"/>
<path d="M144.317 209.504C150.512 206.118 151.707 203.696 152.318 199.024C131.321 192.679 117.142 194.067 93.7088 207.408C94.9456 210.546 101.11 208.107 105.511 211.832C109.911 215.558 106.225 217.912 108.511 217.887C126.136 217.716 146.117 216.49 142.917 214.161C139.716 211.832 138.316 209.504 139.716 208.107C141.116 206.709 142.524 209.383 144.317 209.504Z" fill="#075EB0"/>
<path d="M164.15 190.56C169.704 188.707 171.849 180.259 169.721 171.003C120.232 182.338 105.225 169.89 72.2031 159.94C64.8007 163.603 67.3709 172.807 69.0596 182.855L72.2031 186.411C73.9134 193.271 75.9156 196.95 86.3488 202.412C88.8326 207.358 91.0587 208.053 95.5697 207.943C117.887 201.23 129.654 194.553 155.698 202.412C159.516 198.148 163.144 194.965 164.15 190.56Z" fill="#B7B6B6" stroke="#B7B6B6"/>
<ellipse cx="8.65161" cy="8.47489" rx="8.65161" ry="8.47489" transform="matrix(-0.912036 -0.410111 -0.395439 0.918492 188.382 170.765)" fill="#908D8D"/>
<path d="M94.5557 236.527C100.183 237.361 108.598 236.527 108.598 236.527C114.733 236.527 115.27 220.426 108.598 218.728C101.926 217.029 98.4017 216.855 92.151 219.066C84.7683 224.847 88.9284 235.694 94.5557 236.527Z" fill="#B7B6B6" stroke="#B7B6B6"/>
<ellipse cx="11.0411" cy="10.6218" rx="11.0411" ry="10.6218" transform="matrix(-0.930304 0.366789 0.353165 0.935561 67.71 158.611)" fill="#908D8D"/>
<ellipse cx="11.0923" cy="11.5762" rx="11.0923" ry="11.5762" transform="matrix(-0.930304 0.366789 0.353165 0.935561 159.782 207.953)" fill="#908D8D"/>
<ellipse cx="11.1051" cy="12.6318" rx="11.1051" ry="12.6318" transform="matrix(-0.930304 0.366789 0.353165 0.935561 97.8711 211.136)" fill="#908D8D"/>
<path d="M167.253 25.0456L152.799 8.72065L124.664 5.96704C118.267 10.7053 115.167 14.8238 110.596 25.0456C119.084 40.3318 138.154 47.6646 144.128 50.6149C150.102 53.5652 154.395 54.8189 159.159 50.6149C167.708 41.2966 168.889 35.6248 167.253 25.0456Z" fill="#075EB0"/>
<path d="M168.543 112.61C175.09 112.059 182.119 122.544 182.119 122.544C182.119 122.544 174.201 117.067 168.543 117.412C163.661 117.709 157.119 122.544 157.119 122.544C157.119 122.544 162.652 113.107 168.543 112.61Z" fill="black" stroke="black"/>
<path d="M127.153 112.632C133.699 112.08 140.729 122.565 140.729 122.565C140.729 122.565 132.81 117.088 127.153 117.433C122.271 117.73 115.729 122.565 115.729 122.565C115.729 122.565 121.261 113.128 127.153 112.632Z" fill="black" stroke="black"/>
<path d="M26.4904 60.1595C29.4854 59.3563 31.4522 58.6624 31.7302 60.1595C37.3045 89.5622 37.7851 105.638 31.7302 133.24C30.3022 135.203 26.4904 133.24 26.4904 133.24C26.4904 133.24 29.8527 89.4024 26.4904 60.1595Z" fill="#148BFB"/>
<ellipse cx="11.5653" cy="11.8703" rx="11.5653" ry="11.8703" transform="matrix(-0.495041 0.868869 0.859354 0.511382 41.678 177.719)" fill="#075EB0"/>
<path d="M52.7464 197.995C57.1374 194.284 59.5081 186.898 59.5081 186.898C60.388 182.296 54.9909 171.426 49.269 175.347C43.5471 179.269 41.0498 181.827 38.4502 188.062C37.6807 197.559 48.3554 201.706 52.7464 197.995Z" fill="#B7B6B6" stroke="#B7B6B6"/>
<path d="M216.451 78.5914C216.621 77.2767 217.158 76.9767 221.462 78.5914C232.037 100.932 229.983 114.553 215.873 140.543C212.464 141.707 210.378 142.492 211.054 140.543C222.885 115.297 224.659 101.668 216.451 78.5914Z" fill="#148BFB"/>
<path d="M205.139 185.681C194.199 182.869 172.509 166.391 183.734 150.991C194.96 135.592 217.124 126.667 224.775 128.722C235.036 139.574 243.362 152.536 241.04 165.649C238.718 178.763 216.079 188.493 205.139 185.681Z" fill="url(#paint0_linear_727_49)" stroke="#D9D9D9"/>
<ellipse cx="11.6069" cy="12.7067" rx="11.6069" ry="12.7067" transform="matrix(-0.725858 0.687845 0.673898 0.738825 195.875 148.872)" fill="#075EB0"/>
<path d="M149.506 232.015C152.733 223.717 151.989 211.349 144.651 211.948C138.442 212.455 115.727 214.624 108.85 215.516C101.973 216.407 105.188 236.232 111.075 239.596C127.831 249.173 144.441 238.319 149.506 232.015Z" fill="#D9D9D9" stroke="#D9D9D9"/>
<path d="M190.067 159.456C184.753 163.193 180.014 167.034 178.788 169.895C177.562 172.756 179.14 182.882 182.818 182.514C186.495 182.146 192.233 180.415 198.822 176.044C205.018 169.479 206.402 153.992 190.067 159.456Z" fill="#B7B6B6" stroke="#B7B6B6"/>
<path d="M144.025 253.816C156.658 245.33 169.711 245.969 182.734 253.816C196.152 261.901 214.965 284.915 207.069 289.836C199.173 294.757 130.737 302.433 128.619 289.836C126.5 277.239 131.473 262.247 144.025 253.816Z" fill="#D9D9D9" stroke="#D9D9D9"/>
<path d="M63.5383 258.794C76.1549 250.293 94.2346 250.933 107.24 258.794C120.642 266.894 126.089 289.952 118.203 294.882C110.318 299.812 52.4251 306.294 50.3094 293.674C48.1938 281.053 51.002 267.241 63.5383 258.794Z" fill="#D9D9D9" stroke="#D9D9D9"/>
<defs>
<linearGradient id="paint0_linear_727_49" x1="210.398" y1="128.556" x2="211.021" y2="186.151" gradientUnits="userSpaceOnUse">
<stop stop-color="#B7B6B6"/>
<stop offset="1" stop-color="#D9D9D9"/>
</linearGradient>
</defs>
</svg>
