<svg width="230" height="211" viewBox="0 0 230 211" fill="none" xmlns="http://www.w3.org/2000/svg">
<circle cx="137.83" cy="209.048" r="1.62613" fill="white"/>
<circle cx="180.471" cy="209.048" r="1.62613" fill="white"/>
<path d="M222.028 63.4191C232.716 90.3622 231.853 108.633 224.196 142.196L217.75 145.578L216.427 146.272L213.175 147.978L202.153 153.76C133.408 182.214 93.1658 180.896 31.7708 153.76L11.7152 142.196C-3.20988 111.854 -4.58514 94.8445 11.7152 64.5031L27.6152 57.9986C33.8561 46.0808 39.7442 39.284 58.873 26.7408L83.0842 3.43294L90.6729 0H132.049L139.095 7.94997C177.253 22.1662 191.468 33.2714 205.586 57.9986C206.315 58.102 207.005 58.1998 207.665 58.3018C209.671 58.6119 213.175 59.6297 213.175 59.6297C213.175 59.6297 214.616 60.3355 216.427 61.4055C217.878 62.2628 220.652 62.2699 222.028 63.4191Z" fill="#D9D9D9"/>
<path d="M221.125 65.0451C219.294 62.908 218.203 62.577 216.066 63.5997C209.974 95.6021 209.113 112.872 217.33 141.112C219.089 141.458 219.958 141.144 221.125 138.944C216.032 111.302 216.908 95.2998 221.125 65.0451Z" fill="url(#paint0_linear_696_146)"/>
<ellipse cx="110.728" cy="103.35" rx="75.344" ry="46.2544" fill="#484848" fill-opacity="0.6"/>
<path d="M16.2083 64.8452C17.8316 64.2285 18.7404 64.0722 20.3642 64.8452C8.02377 89.3111 8.54939 106.951 17.654 142.719C15.1021 141.812 13.146 141.065 12.0526 138.382C1.54096 108.438 0.625574 87.3995 16.2083 64.8452Z" fill="url(#paint1_linear_696_146)"/>
<ellipse cx="141.986" cy="204.35" rx="4.33635" ry="4.15566" fill="white"/>
<ellipse cx="177.038" cy="204.35" rx="4.33635" ry="4.15566" fill="white"/>
<path d="M78.2908 94.3491C67.8822 93.4682 56.7048 110.215 56.7048 110.215C56.7048 110.215 69.2953 101.468 78.2908 102.018C86.0529 102.493 96.4547 110.215 96.4547 110.215C96.4547 110.215 87.6578 95.1419 78.2908 94.3491Z" fill="black" stroke="black"/>
<path d="M144.42 94.3491C134.011 93.4682 122.834 110.215 122.834 110.215C122.834 110.215 135.424 101.468 144.42 102.018C152.182 102.493 162.584 110.215 162.584 110.215C162.584 110.215 153.787 95.1419 144.42 94.3491Z" fill="black" stroke="black"/>
<path d="M37.5302 142.882C25.5911 145.951 1.92022 163.934 14.1708 180.739C26.4213 197.545 50.609 207.285 58.9596 205.042C70.157 193.199 79.2429 179.053 76.7089 164.743C74.1749 150.432 49.4692 139.813 37.5302 142.882Z" fill="url(#paint2_linear_696_146)" stroke="#D9D9D9"/>
<path d="M182.118 143.605C194.057 146.674 217.727 164.656 205.477 181.462C193.226 198.267 169.039 208.008 160.688 205.765C149.491 193.922 140.405 179.776 142.939 165.465C145.473 151.155 170.179 140.536 182.118 143.605Z" fill="url(#paint3_linear_696_146)" stroke="#D9D9D9"/>
<path d="M35.952 147.75L46.7852 153.032C50.9519 147.548 53.0653 144.348 55.2102 137.721C56.0401 134.798 55.2999 133.912 53.3199 132.741C49.3845 132.329 48.2464 132.665 46.3471 133.334C44.5178 134.246 43.7393 134.733 43.0038 135.535C39.2084 140.172 37.8747 142.873 35.952 147.75Z" fill="url(#paint4_linear_696_146)"/>
<path d="M182.991 151.724L172.158 157.007C167.991 151.523 165.878 148.323 163.733 141.696C162.903 138.773 163.643 137.887 165.623 136.716C169.558 136.304 170.696 136.64 172.596 137.309C174.425 138.221 175.204 138.708 175.939 139.51C179.734 144.147 181.068 146.848 182.991 151.724Z" fill="url(#paint5_linear_696_146)"/>
<path d="M57.9991 156.894L51.8094 153.836C52.9864 149.544 53.6061 147.125 56.6028 143.472C58.8071 141.92 60.2971 142.263 63.3561 145.004C63.0928 150.035 61.4461 152.537 57.9991 156.894Z" fill="url(#paint6_linear_696_146)"/>
<path d="M166.961 158.334L160.609 161.037C158.12 157.348 156.689 155.301 155.87 150.648C156.13 147.965 157.361 147.057 161.434 146.524C165.078 150.001 165.903 152.881 166.961 158.334Z" fill="url(#paint7_linear_696_146)"/>
<path d="M74.0384 163.336L65.3774 158.909C66.2955 153.489 66.5159 153.34 69.0473 147.937C70.634 145.339 71.6809 144.646 74.0384 145.82C75.5777 147.35 76.3638 148.289 77.1211 150.632C77.8605 152.662 77.8286 153.799 77.1211 155.829C76.0262 159.959 75.3141 161.198 74.0384 163.336Z" fill="url(#paint8_linear_696_146)"/>
<path d="M146.334 167.672L154.995 163.245C154.077 157.826 153.857 157.677 151.325 152.274C149.739 149.675 148.692 148.983 146.334 150.156C144.795 151.687 144.009 152.626 143.252 154.968C142.512 156.999 142.544 158.135 143.252 160.165C144.347 164.295 145.059 165.534 146.334 167.672Z" fill="url(#paint9_linear_696_146)"/>
<path d="M120.514 6.50452H91.9668L82.0293 16.442L106.241 29.451L130.633 16.442L120.514 6.50452Z" fill="url(#paint10_linear_696_146)" stroke="url(#paint11_linear_696_146)"/>
<defs>
<linearGradient id="paint0_linear_696_146" x1="216.228" y1="63.0425" x2="216.228" y2="141.231" gradientUnits="userSpaceOnUse">
<stop stop-color="#8900FF"/>
<stop offset="1" stop-color="#2A00FF"/>
</linearGradient>
<linearGradient id="paint1_linear_696_146" x1="12.3357" y1="64.3224" x2="12.3357" y2="142.719" gradientUnits="userSpaceOnUse">
<stop stop-color="#8900FF"/>
<stop offset="1" stop-color="#2A00FF"/>
</linearGradient>
<linearGradient id="paint2_linear_696_146" x1="43.2688" y1="205.223" x2="43.9488" y2="142.368" gradientUnits="userSpaceOnUse">
<stop stop-color="#B7B6B6"/>
<stop offset="1" stop-color="#D9D9D9"/>
</linearGradient>
<linearGradient id="paint3_linear_696_146" x1="176.379" y1="205.945" x2="175.699" y2="143.091" gradientUnits="userSpaceOnUse">
<stop stop-color="#B7B6B6"/>
<stop offset="1" stop-color="#D9D9D9"/>
</linearGradient>
<linearGradient id="paint4_linear_696_146" x1="52.0149" y1="131.988" x2="41.174" y2="150.764" gradientUnits="userSpaceOnUse">
<stop stop-color="#8900FF"/>
<stop offset="1" stop-color="#2A00FF"/>
</linearGradient>
<linearGradient id="paint5_linear_696_146" x1="166.928" y1="135.963" x2="177.769" y2="154.739" gradientUnits="userSpaceOnUse">
<stop stop-color="#8900FF"/>
<stop offset="1" stop-color="#2A00FF"/>
</linearGradient>
<linearGradient id="paint6_linear_696_146" x1="60.3015" y1="142.833" x2="55.453" y2="155.953" gradientUnits="userSpaceOnUse">
<stop stop-color="#8900FF"/>
<stop offset="1" stop-color="#2A00FF"/>
</linearGradient>
<linearGradient id="paint7_linear_696_146" x1="157.796" y1="147.426" x2="164.589" y2="159.653" gradientUnits="userSpaceOnUse">
<stop stop-color="#8900FF"/>
<stop offset="1" stop-color="#2A00FF"/>
</linearGradient>
<linearGradient id="paint8_linear_696_146" x1="71.5206" y1="145.268" x2="71.5206" y2="163.336" gradientUnits="userSpaceOnUse">
<stop stop-color="#8900FF"/>
<stop offset="1" stop-color="#2A00FF"/>
</linearGradient>
<linearGradient id="paint9_linear_696_146" x1="148.852" y1="149.604" x2="148.852" y2="167.672" gradientUnits="userSpaceOnUse">
<stop stop-color="#8900FF"/>
<stop offset="1" stop-color="#2A00FF"/>
</linearGradient>
<linearGradient id="paint10_linear_696_146" x1="106.331" y1="6.50452" x2="106.331" y2="29.451" gradientUnits="userSpaceOnUse">
<stop stop-color="#8900FF"/>
<stop offset="1" stop-color="#2A00FF"/>
</linearGradient>
<linearGradient id="paint11_linear_696_146" x1="106.331" y1="6.50452" x2="106.331" y2="29.451" gradientUnits="userSpaceOnUse">
<stop stop-color="#8900FF"/>
<stop offset="1" stop-color="#2A00FF"/>
</linearGradient>
</defs>
</svg>
