<svg width="413" height="462" viewBox="0 0 413 462" fill="none" xmlns="http://www.w3.org/2000/svg">
<path d="M147.769 389.047C148.329 380.455 149.391 372.563 151.74 369.675C154.088 366.786 166.397 364.246 168.473 369.186C170.549 374.126 173.829 381.603 172.103 392.893C170.376 404.183 152.74 412.726 147.769 389.047Z" fill="#B7B6B6" stroke="#B7B6B6"/>
<path d="M231.764 400.879C231.911 391.462 232.65 382.678 235.085 378.985C237.519 375.291 250.972 369.54 253.536 374.369C256.099 379.198 260.132 386.473 258.845 399.089C257.559 411.705 238.553 425.241 231.764 400.879Z" fill="#B7B6B6" stroke="#B7B6B6"/>
<path d="M176.265 344.673C168.236 340.391 166.688 337.326 165.896 331.417C193.107 323.391 211.481 325.147 241.849 342.022C240.246 345.991 232.257 342.906 226.555 347.619C220.852 352.332 225.628 355.309 222.666 355.277C199.827 355.061 173.932 353.51 178.08 350.564C182.227 347.619 184.042 344.673 182.227 342.906C180.413 341.138 178.589 344.52 176.265 344.673Z" fill="url(#paint0_linear_761_130)"/>
<path d="M150.156 320.55C142.933 318.207 140.143 307.521 142.911 295.815C207.275 310.152 226.793 294.408 269.741 281.824C279.368 286.456 276.025 298.096 273.829 310.806L269.741 315.303C267.516 323.979 264.912 328.632 251.343 335.54C248.113 341.796 245.217 342.674 239.35 342.536C210.325 334.046 195.021 325.601 161.149 335.54C156.183 330.147 151.465 326.121 150.156 320.55Z" fill="#B7B6B6" stroke="#B7B6B6"/>
<ellipse cx="133.483" cy="300.856" rx="11.1976" ry="10.8089" transform="rotate(-23.7492 133.483 300.856)" fill="#908D8D"/>
<path d="M240.755 379.055C233.446 380.115 222.515 379.055 222.515 379.055C214.546 379.055 213.849 358.591 222.515 356.432C231.182 354.273 235.76 354.052 243.879 356.862C253.469 364.209 248.065 377.996 240.755 379.055Z" fill="#B7B6B6" stroke="#B7B6B6"/>
<ellipse cx="284.096" cy="297.802" rx="14.3006" ry="13.5377" transform="rotate(21.096 284.096 297.802)" fill="#908D8D"/>
<ellipse cx="164.124" cy="361.674" rx="14.3669" ry="14.7541" transform="rotate(21.096 164.124 361.674)" fill="#908D8D"/>
<ellipse cx="244.074" cy="366.981" rx="14.3835" ry="16.0995" transform="rotate(21.096 244.074 366.981)" fill="#908D8D"/>
<path d="M162.648 85.1968L198.876 79.7002L212.117 87.4454C234.87 91.0166 246.851 94.7487 266.084 106.184C288.358 119.355 296.902 129.201 310.306 147.908C317.902 151.57 322.171 152.933 329.794 154.903C341.459 183.22 339.35 205.447 333.541 246.596C329.148 248.911 324.859 249.839 310.306 250.094C283.604 287.05 226.012 301.768 198.876 302.561C151.092 305.727 106.734 284.272 97.9388 264.335C95.7951 261.459 91.7572 259.957 82.9481 257.339C52.2339 208.949 73.916 184.869 74.2036 178.888C76.0469 177.404 76.2681 176.36 82.9481 176.14C95.7772 144.524 107.827 130.478 136.914 111.181C147.891 99.8629 153.545 94.1487 162.648 85.1968Z" fill="#D9D9D9" stroke="#D9D9D9"/>
<path d="M104.934 214.116C117.876 191.013 161.562 175.434 219.863 190.881C252.651 200.552 262.428 231.476 247.345 247.096C221.904 273.854 181.002 278.653 144.16 268.832C112.105 256.845 92.3664 240.985 104.934 214.116Z" fill="#484848" fill-opacity="0.6"/>
<path d="M329.294 154.903C325.398 153.882 322.839 152.999 322.478 154.903C315.226 192.297 314.601 212.741 322.478 247.845C324.335 250.342 329.294 247.845 329.294 247.845C329.294 247.845 324.92 192.093 329.294 154.903Z" fill="url(#paint1_linear_761_130)"/>
<path d="M310.665 296.901C305.072 301.726 295.326 303.186 295.326 303.186C289.383 303.332 276.975 294.12 283.12 287.639C289.265 281.158 293.005 278.509 301.362 276.511C313.398 277.547 316.257 292.077 310.665 296.901Z" fill="#B7B6B6" stroke="#B7B6B6"/>
<path d="M169.268 373.31C165.059 362.765 166.03 347.047 175.6 347.809C183.697 348.454 213.324 351.21 222.293 352.343C231.263 353.476 227.069 378.668 219.392 382.944C197.537 395.114 175.874 381.321 169.268 373.31Z" fill="#D9D9D9" stroke="#D9D9D9"/>
<path d="M176.481 401.031C160.092 390.26 143.157 391.071 126.263 401.031C108.854 411.294 84.4471 440.506 94.6907 446.752C104.934 452.999 193.721 462.743 196.469 446.752C199.217 430.762 192.766 411.734 176.481 401.031Z" fill="#D9D9D9" stroke="#D9D9D9"/>
<path d="M280.879 407.527C264.49 396.756 241.004 397.567 224.11 407.527C206.701 417.79 199.625 447.002 209.869 453.248C220.112 459.495 295.315 467.708 298.064 451.718C300.812 435.728 297.164 418.23 280.879 407.527Z" fill="#D9D9D9" stroke="#D9D9D9"/>
<path d="M82.4483 178.139C82.2282 176.463 81.5316 176.081 75.9524 178.139C62.2457 206.609 64.9074 223.967 83.1979 257.089C87.6162 258.572 90.32 259.573 89.444 257.089C74.109 224.916 71.8086 207.548 82.4483 178.139Z" fill="url(#paint2_linear_761_130)"/>
<path d="M58.9343 252.393L71.273 245.573C71.273 245.573 62.7736 233.484 57.8273 229.349C52.8809 225.215 39.1516 226.533 45.4885 236.169C51.8255 245.805 58.9343 252.393 58.9343 252.393Z" fill="url(#paint3_linear_761_130)"/>
<path d="M31.3249 258.215C26.4658 255.79 17.8255 263.544 21.1969 267.824C28.1652 276.671 43.7405 281.263 43.7405 281.263L47.772 270.75C47.772 270.75 38.8431 261.968 31.3249 258.215Z" fill="url(#paint4_linear_761_130)"/>
<path d="M46.5322 248.747C42.7959 244.309 35.7646 251.315 38.2631 254.466C43.4274 260.98 55.7373 265.712 55.7373 265.712L58.7169 257.979C58.7169 257.979 50.5361 253.504 46.5322 248.747Z" fill="url(#paint5_linear_761_130)"/>
<path d="M84.2069 316.803C98.7594 315.519 129.69 299.26 118.243 277.576C106.796 255.892 80.1007 240.098 69.9053 241.106C54.691 252.643 41.5533 267.233 42.0288 284.207C42.5043 301.181 69.6544 318.086 84.2069 316.803Z" fill="url(#paint6_linear_761_130)" stroke="#D9D9D9"/>
<ellipse cx="99.6039" cy="294.232" rx="14.9906" ry="16.2398" transform="rotate(51.79 99.6039 294.232)" fill="url(#paint7_linear_761_130)"/>
<path d="M146.408 110.181L165.147 89.4441L201.624 85.9463C209.917 91.9651 213.937 97.1967 219.863 110.181C208.858 129.599 184.135 138.913 176.39 142.661C168.645 146.408 163.078 148.001 156.902 142.661C145.817 130.824 144.287 123.619 146.408 110.181Z" fill="url(#paint8_linear_761_130)"/>
<path d="M258.319 312.167H259.496V313.343H258.319V312.167ZM257.143 312.167H258.319V313.343H257.143V312.167ZM255.967 312.167H257.143V313.343H255.967V312.167ZM254.79 312.167H255.967V313.343H254.79V312.167ZM254.79 310.99H255.967V312.167H254.79V310.99ZM253.614 310.99H254.79V312.167H253.614V310.99ZM255.967 310.99H257.143V312.167H255.967V310.99ZM257.143 310.99H258.319V312.167H257.143V310.99ZM258.319 310.99H259.496V312.167H258.319V310.99ZM258.319 309.814H259.496V310.99H258.319V309.814ZM257.143 309.814H258.319V310.99H257.143V309.814ZM255.967 309.814H257.143V310.99H255.967V309.814ZM255.967 308.637H257.143V309.814H255.967V308.637ZM257.143 308.637H258.319V309.814H257.143V308.637ZM255.967 307.461H257.143V308.637H255.967V307.461ZM254.79 307.461H255.967V308.637H254.79V307.461ZM254.79 308.637H255.967V309.814H254.79V308.637ZM257.143 307.461H258.319V308.637H257.143V307.461ZM253.614 308.637H254.79V309.814H253.614V308.637ZM252.437 309.814H253.614V310.99H252.437V309.814ZM251.261 309.814H252.437V310.99H251.261V309.814ZM253.614 309.814H254.79V310.99H253.614V309.814ZM254.79 309.814H255.967V310.99H254.79V309.814ZM254.79 306.284H255.967V307.461H254.79V306.284ZM253.614 306.284H254.79V307.461H253.614V306.284ZM252.437 306.284H253.614V307.461H252.437V306.284ZM251.261 306.284H252.437V307.461H251.261V306.284ZM250.084 306.284H251.261V307.461H250.084V306.284ZM248.908 306.284H250.084V307.461H248.908V306.284ZM247.731 306.284H248.908V307.461H247.731V306.284ZM246.555 306.284H247.731V307.461H246.555V306.284ZM246.555 307.461H247.731V308.637H246.555V307.461ZM245.378 307.461H246.555V308.637H245.378V307.461ZM244.202 307.461H245.378V308.637H244.202V307.461ZM244.202 308.637H245.378V309.814H244.202V308.637ZM245.378 308.637H246.555V309.814H245.378V308.637ZM246.555 308.637H247.731V309.814H246.555V308.637ZM247.731 308.637H248.908V309.814H247.731V308.637ZM248.908 308.637H250.084V309.814H248.908V308.637ZM250.084 308.637H251.261V309.814H250.084V308.637ZM251.261 308.637H252.437V309.814H251.261V308.637ZM252.437 308.637H253.614V309.814H252.437V308.637ZM253.614 307.461H254.79V308.637H253.614V307.461ZM252.437 307.461H253.614V308.637H252.437V307.461ZM251.261 307.461H252.437V308.637H251.261V307.461ZM250.084 307.461H251.261V308.637H250.084V307.461ZM248.908 307.461H250.084V308.637H248.908V307.461ZM247.731 307.461H248.908V308.637H247.731V307.461ZM244.202 309.814H245.378V310.99H244.202V309.814ZM243.025 309.814H244.202V310.99H243.025V309.814ZM245.378 309.814H246.555V310.99H245.378V309.814ZM246.555 309.814H247.731V310.99H246.555V309.814ZM247.731 309.814H248.908V310.99H247.731V309.814ZM248.908 309.814H250.084V310.99H248.908V309.814ZM250.084 309.814H251.261V310.99H250.084V309.814ZM246.555 310.99H247.731V312.167H246.555V310.99ZM247.731 310.99H248.908V312.167H247.731V310.99ZM245.378 310.99H246.555V312.167H245.378V310.99ZM244.202 310.99H245.378V312.167H244.202V310.99ZM243.025 310.99H244.202V312.167H243.025V310.99ZM243.025 312.167H244.202V313.343H243.025V312.167ZM243.025 313.343H244.202V314.52H243.025V313.343ZM243.025 314.52H244.202V315.696H243.025V314.52ZM243.025 315.696H244.202V316.873H243.025V315.696ZM244.202 314.52H245.378V315.696H244.202V314.52ZM244.202 313.343H245.378V314.52H244.202V313.343ZM244.202 312.167H245.378V313.343H244.202V312.167ZM245.378 312.167H246.555V313.343H245.378V312.167ZM245.378 313.343H246.555V314.52H245.378V313.343ZM245.378 314.52H246.555V315.696H245.378V314.52ZM246.555 314.52H247.731V315.696H246.555V314.52ZM246.555 313.343H247.731V314.52H246.555V313.343ZM246.555 312.167H247.731V313.343H246.555V312.167ZM244.202 315.696H245.378V316.873H244.202V315.696ZM244.202 316.873H245.378V318.049H244.202V316.873ZM244.202 318.049H245.378V319.226H244.202V318.049ZM245.378 318.049H246.555V319.226H245.378V318.049ZM246.555 318.049H247.731V319.226H246.555V318.049ZM246.555 316.873H247.731V318.049H246.555V316.873ZM245.378 316.873H246.555V318.049H245.378V316.873ZM245.378 315.696H246.555V316.873H245.378V315.696ZM246.555 315.696H247.731V316.873H246.555V315.696ZM247.731 314.52H248.908V315.696H247.731V314.52ZM247.731 315.696H248.908V316.873H247.731V315.696ZM247.731 316.873H248.908V318.049H247.731V316.873ZM247.731 318.049H248.908V319.226H247.731V318.049ZM246.555 319.226H247.731V320.402H246.555V319.226ZM247.731 319.226H248.908V320.402H247.731V319.226ZM248.908 319.226H250.084V320.402H248.908V319.226ZM250.084 319.226H251.261V320.402H250.084V319.226ZM251.261 319.226H252.437V320.402H251.261V319.226ZM252.437 319.226H253.614V320.402H252.437V319.226ZM252.437 318.049H253.614V319.226H252.437V318.049ZM252.437 316.873H253.614V318.049H252.437V316.873ZM251.261 315.696H252.437V316.873H251.261V315.696ZM250.084 315.696H251.261V316.873H250.084V315.696ZM248.908 315.696H250.084V316.873H248.908V315.696ZM248.908 316.873H250.084V318.049H248.908V316.873ZM250.084 316.873H251.261V318.049H250.084V316.873ZM250.084 318.049H251.261V319.226H250.084V318.049ZM251.261 318.049H252.437V319.226H251.261V318.049ZM251.261 316.873H252.437V318.049H251.261V316.873ZM248.908 318.049H250.084V319.226H248.908V318.049ZM252.437 315.696H253.614V316.873H252.437V315.696ZM253.614 315.696H254.79V316.873H253.614V315.696ZM254.79 315.696H255.967V316.873H254.79V315.696ZM254.79 316.873H255.967V318.049H254.79V316.873ZM254.79 318.049H255.967V319.226H254.79V318.049ZM253.614 318.049H254.79V319.226H253.614V318.049ZM253.614 316.873H254.79V318.049H253.614V316.873ZM255.967 318.049H257.143V319.226H255.967V318.049ZM257.143 318.049H258.319V319.226H257.143V318.049ZM257.143 316.873H258.319V318.049H257.143V316.873ZM255.967 316.873H257.143V318.049H255.967V316.873ZM254.79 319.226H255.967V320.402H254.79V319.226ZM254.79 320.402H255.967V321.579H254.79V320.402ZM253.614 320.402H254.79V321.579H253.614V320.402ZM253.614 319.226H254.79V320.402H253.614V319.226ZM255.967 320.402H257.143V321.579H255.967V320.402ZM257.143 320.402H258.319V321.579H257.143V320.402ZM257.143 319.226H258.319V320.402H257.143V319.226ZM255.967 319.226H257.143V320.402H255.967V319.226ZM258.319 319.226H259.496V320.402H258.319V319.226ZM258.319 320.402H259.496V321.579H258.319V320.402ZM258.319 321.579H259.496V322.755H258.319V321.579ZM258.319 322.755H259.496V323.931H258.319V322.755ZM257.143 322.755H258.319V323.931H257.143V322.755ZM255.967 322.755H257.143V323.931H255.967V322.755ZM255.967 321.579H257.143V322.755H255.967V321.579ZM254.79 321.579H255.967V322.755H254.79V321.579ZM254.79 322.755H255.967V323.931H254.79V322.755ZM257.143 321.579H258.319V322.755H257.143V321.579ZM258.319 323.931H259.496V325.108H258.319V323.931ZM258.319 325.108H259.496V326.284H258.319V325.108ZM257.143 325.108H258.319V326.284H257.143V325.108ZM257.143 326.284H258.319V327.461H257.143V326.284ZM257.143 327.461H258.319V328.637H257.143V327.461ZM255.967 327.461H257.143V328.637H255.967V327.461ZM254.79 327.461H255.967V328.637H254.79V327.461ZM255.967 326.284H257.143V327.461H255.967V326.284ZM255.967 325.108H257.143V326.284H255.967V325.108ZM257.143 323.931H258.319V325.108H257.143V323.931ZM255.967 323.931H257.143V325.108H255.967V323.931ZM254.79 323.931H255.967V325.108H254.79V323.931ZM253.614 323.931H254.79V325.108H253.614V323.931ZM253.614 325.108H254.79V326.284H253.614V325.108ZM254.79 326.284H255.967V327.461H254.79V326.284ZM254.79 325.108H255.967V326.284H254.79V325.108ZM253.614 326.284H254.79V327.461H253.614V326.284ZM253.614 327.461H254.79V328.637H253.614V327.461ZM254.79 328.637H255.967V329.814H254.79V328.637ZM253.614 328.637H254.79V329.814H253.614V328.637ZM252.437 328.637H253.614V329.814H252.437V328.637ZM251.261 328.637H252.437V329.814H251.261V328.637ZM250.084 328.637H251.261V329.814H250.084V328.637ZM248.908 328.637H250.084V329.814H248.908V328.637ZM247.731 328.637H248.908V329.814H247.731V328.637ZM247.731 327.461H248.908V328.637H247.731V327.461ZM246.555 327.461H247.731V328.637H246.555V327.461ZM246.555 328.637H247.731V329.814H246.555V328.637ZM245.378 327.461H246.555V328.637H245.378V327.461ZM244.202 327.461H245.378V328.637H244.202V327.461ZM244.202 326.284H245.378V327.461H244.202V326.284ZM245.378 326.284H246.555V327.461H245.378V326.284ZM244.202 325.108H245.378V326.284H244.202V325.108ZM243.025 325.108H244.202V326.284H243.025V325.108ZM243.025 323.931H244.202V325.108H243.025V323.931ZM243.025 322.755H244.202V323.931H243.025V322.755ZM244.202 322.755H245.378V323.931H244.202V322.755ZM245.378 322.755H246.555V323.931H245.378V322.755ZM246.555 322.755H247.731V323.931H246.555V322.755ZM246.555 323.931H247.731V325.108H246.555V323.931ZM247.731 323.931H248.908V325.108H247.731V323.931ZM247.731 325.108H248.908V326.284H247.731V325.108ZM248.908 325.108H250.084V326.284H248.908V325.108ZM250.084 325.108H251.261V326.284H250.084V325.108ZM251.261 325.108H252.437V326.284H251.261V325.108ZM252.437 326.284H253.614V327.461H252.437V326.284ZM252.437 325.108H253.614V326.284H252.437V325.108ZM252.437 327.461H253.614V328.637H252.437V327.461ZM251.261 327.461H252.437V328.637H251.261V327.461ZM250.084 327.461H251.261V328.637H250.084V327.461ZM248.908 327.461H250.084V328.637H248.908V327.461ZM246.555 326.284H247.731V327.461H246.555V326.284ZM247.731 326.284H248.908V327.461H247.731V326.284ZM248.908 326.284H250.084V327.461H248.908V326.284ZM250.084 326.284H251.261V327.461H250.084V326.284ZM251.261 326.284H252.437V327.461H251.261V326.284ZM246.555 325.108H247.731V326.284H246.555V325.108ZM245.378 325.108H246.555V326.284H245.378V325.108ZM245.378 323.931H246.555V325.108H245.378V323.931ZM244.202 323.931H245.378V325.108H244.202V323.931Z" fill="black"/>
<path d="M142.411 219.113C132.532 218.281 121.924 234.104 121.924 234.104C121.924 234.104 133.873 225.839 142.411 226.358C149.778 226.807 159.65 234.104 159.65 234.104C159.65 234.104 151.301 219.862 142.411 219.113Z" fill="black" stroke="black"/>
<path d="M204.872 219.145C194.993 218.312 184.385 234.135 184.385 234.135C184.385 234.135 196.334 225.87 204.872 226.39C212.239 226.839 222.111 234.135 222.111 234.135C222.111 234.135 213.762 219.894 204.872 219.145Z" fill="black" stroke="black"/>
<path d="M108.639 283.642C116.604 286.351 123.904 289.4 126.514 292.519C129.124 295.639 131.098 308.856 126.443 309.749C121.787 310.643 114.078 310.595 104.301 307.564C94.1619 301.651 86.4811 282.834 108.639 283.642Z" fill="#B7B6B6" stroke="#B7B6B6"/>
<path d="M348.407 239.476L351.048 253.857C351.048 253.857 358.968 249.84 370.945 242.25C382.921 234.66 375.313 229.6 368.304 227.869C361.295 226.139 348.407 239.476 348.407 239.476Z" fill="url(#paint9_linear_761_130)"/>
<path d="M348.471 213.381C351.968 209.226 346.454 199.009 341.502 201.284C331.269 205.986 323.157 220.052 323.157 220.052L332.432 226.434C332.432 226.434 343.062 219.811 348.471 213.381Z" fill="url(#paint10_linear_761_130)"/>
<path d="M354.113 230.383C359.304 227.791 354.139 219.314 350.49 221.005C342.949 224.499 335.465 235.358 335.465 235.358L342.284 240.067C342.284 240.067 348.551 233.162 354.113 230.383Z" fill="url(#paint11_linear_761_130)"/>
<path d="M277.356 270.145C274.009 284.859 310.868 313.98 331.063 295.839C351.258 277.698 355.548 268.118 359.203 257.389C362.859 246.661 325.588 214.306 315.76 217.935C291.102 233.286 280.702 255.431 277.356 270.145Z" fill="url(#paint12_linear_761_130)" stroke="#D9D9D9"/>
<ellipse cx="303.688" cy="284.681" rx="14.7793" ry="15.3327" transform="rotate(-62.1545 303.688 284.681)" fill="url(#paint13_linear_761_130)"/>
<path d="M375.043 111.347C376.888 107.669 382.138 107.669 383.982 111.347L388.328 120.012C389.047 121.447 390.413 122.449 391.998 122.706L401.579 124.256C405.583 124.904 407.19 129.799 404.348 132.694L397.387 139.787C396.281 140.913 395.773 142.496 396.014 144.055L397.535 153.868C398.162 157.912 393.93 160.955 390.296 159.074L381.811 154.682C380.37 153.936 378.656 153.936 377.214 154.682L368.73 159.074C365.095 160.955 360.863 157.912 361.49 153.868L363.011 144.055C363.253 142.496 362.744 140.913 361.639 139.787L354.677 132.694C351.836 129.799 353.443 124.904 357.447 124.256L367.027 122.706C368.613 122.449 369.978 121.447 370.698 120.012L375.043 111.347Z" fill="#FBE969"/>
<circle cx="358.234" cy="127.795" r="1.16594" fill="white"/>
<path d="M372.517 121.382C371.534 123.667 370.888 124.535 369.457 124.88C363.172 125.405 362.008 125.937 361.732 127.066C362.076 128.176 362.506 128.248 363.335 128.232C367.176 128.472 369.124 128.046 372.517 127.066C373.403 126.763 375.798 121.481 379.367 113.95C379.793 112.851 379.78 112.323 379.076 111.618C378.287 111.469 377.955 111.543 377.181 112.055L372.517 121.382Z" fill="white"/>
<path d="M366.542 144.118C365.938 144.084 365.654 144.363 365.23 145.284C364.068 148.19 363.19 151.988 364.21 152.863C365.23 153.737 366.542 151.551 366.542 151.551C367.145 149.377 367.416 146.159 367.416 146.159C367.416 146.159 367.344 144.598 366.542 144.118Z" fill="white"/>
<path d="M372.517 121.382C371.534 123.667 370.888 124.535 369.457 124.88C363.172 125.405 362.008 125.937 361.732 127.066C362.076 128.176 362.506 128.248 363.335 128.232C367.176 128.472 369.124 128.046 372.517 127.066C373.403 126.763 375.798 121.481 379.367 113.95C379.793 112.851 379.78 112.323 379.076 111.618C378.287 111.469 377.955 111.543 377.181 112.055L372.517 121.382Z" stroke="white"/>
<path d="M366.542 144.118C365.938 144.084 365.654 144.363 365.23 145.284C364.068 148.19 363.19 151.988 364.21 152.863C365.23 153.737 366.542 151.551 366.542 151.551C367.145 149.377 367.416 146.159 367.416 146.159C367.416 146.159 367.344 144.598 366.542 144.118Z" stroke="white"/>
<path d="M300.59 38.8927C302.435 35.2148 307.684 35.2148 309.529 38.8928L313.874 47.5569C314.594 48.9923 315.959 49.9946 317.545 50.2512L327.125 51.8016C331.13 52.4496 332.736 57.3449 329.895 60.2398L322.934 67.3324C321.828 68.4588 321.319 70.041 321.561 71.6007L323.082 81.4133C323.709 85.4575 319.477 88.5009 315.842 86.6196L307.358 82.2276C305.916 81.4814 304.202 81.4814 302.761 82.2275L294.276 86.6196C290.642 88.5009 286.41 85.4575 287.037 81.4133L288.558 71.6007C288.799 70.041 288.291 68.4588 287.185 67.3324L280.224 60.2398C277.382 57.3449 278.989 52.4496 282.993 51.8016L292.574 50.2512C294.159 49.9946 295.525 48.9923 296.245 47.5569L300.59 38.8927Z" fill="#FBE969"/>
<circle cx="283.781" cy="55.3404" r="1.16594" fill="white"/>
<path d="M298.064 48.9277C297.08 51.2119 296.435 52.0799 295.003 52.4256C288.719 52.9504 287.554 53.4822 287.279 54.6117C287.623 55.721 288.052 55.7933 288.882 55.7776C292.723 56.0175 294.671 55.5911 298.064 54.6117C298.95 54.3083 301.344 49.026 304.913 41.4949C305.34 40.3965 305.326 39.8683 304.622 39.163C303.833 39.0142 303.502 39.088 302.727 39.6002L298.064 48.9277Z" fill="white"/>
<path d="M292.088 71.6635C291.484 71.6289 291.201 71.9084 290.776 72.8295C289.615 75.7355 288.736 79.5336 289.756 80.4081C290.776 81.2825 292.088 79.0964 292.088 79.0964C292.691 76.9223 292.963 73.7039 292.963 73.7039C292.963 73.7039 292.89 72.1434 292.088 71.6635Z" fill="white"/>
<path d="M298.064 48.9277C297.08 51.2119 296.435 52.0799 295.003 52.4256C288.719 52.9504 287.554 53.4822 287.279 54.6117C287.623 55.721 288.052 55.7933 288.882 55.7776C292.723 56.0175 294.671 55.5911 298.064 54.6117C298.95 54.3083 301.344 49.026 304.913 41.4949C305.34 40.3965 305.326 39.8683 304.622 39.163C303.833 39.0142 303.502 39.088 302.727 39.6002L298.064 48.9277Z" stroke="white"/>
<path d="M292.088 71.6635C291.484 71.6289 291.201 71.9084 290.776 72.8295C289.615 75.7355 288.736 79.5336 289.756 80.4081C290.776 81.2825 292.088 79.0964 292.088 79.0964C292.691 76.9223 292.963 73.7039 292.963 73.7039C292.963 73.7039 292.89 72.1434 292.088 71.6635Z" stroke="white"/>
<path d="M206.649 8.91143C208.493 5.2335 213.743 5.2335 215.587 8.91143L219.933 17.5756C220.653 19.011 222.018 20.0133 223.603 20.2698L233.184 21.8203C237.188 22.4683 238.795 27.3636 235.954 30.2584L228.992 37.3511C227.887 38.4774 227.378 40.0597 227.62 41.6193L229.141 51.432C229.768 55.4762 225.536 58.5196 221.901 56.6382L213.417 52.2462C211.975 51.5 210.261 51.5 208.819 52.2462L200.335 56.6382C196.7 58.5196 192.468 55.4762 193.095 51.432L194.616 41.6193C194.858 40.0597 194.349 38.4774 193.244 37.3511L186.282 30.2584C183.441 27.3636 185.048 22.4683 189.052 21.8203L198.633 20.2698C200.218 20.0133 201.583 19.011 202.303 17.5756L206.649 8.91143Z" fill="#FBE969"/>
<circle cx="189.84" cy="25.3591" r="1.16594" fill="white"/>
<path d="M204.122 18.9465C203.139 21.2307 202.494 22.0987 201.062 22.4444C194.777 22.9692 193.613 23.501 193.337 24.6305C193.681 25.7398 194.111 25.8121 194.941 25.7964C198.781 26.0363 200.729 25.6099 204.122 24.6305C205.008 24.3271 207.403 19.0448 210.972 11.5137C211.398 10.4153 211.385 9.88708 210.681 9.18181C209.892 9.03301 209.561 9.10678 208.786 9.61904L204.122 18.9465Z" fill="white"/>
<path d="M198.147 41.6823C197.543 41.6477 197.26 41.9272 196.835 42.8483C195.673 45.7543 194.795 49.5524 195.815 50.4268C196.835 51.3013 198.147 49.1152 198.147 49.1152C198.75 46.9411 199.021 43.7227 199.021 43.7227C199.021 43.7227 198.949 42.1622 198.147 41.6823Z" fill="white"/>
<path d="M204.122 18.9465C203.139 21.2307 202.494 22.0987 201.062 22.4444C194.777 22.9692 193.613 23.501 193.337 24.6305C193.681 25.7398 194.111 25.8121 194.941 25.7964C198.781 26.0363 200.729 25.6099 204.122 24.6305C205.008 24.3271 207.403 19.0448 210.972 11.5137C211.398 10.4153 211.385 9.88708 210.681 9.18181C209.892 9.03301 209.561 9.10678 208.786 9.61904L204.122 18.9465Z" stroke="white"/>
<path d="M198.147 41.6823C197.543 41.6477 197.26 41.9272 196.835 42.8483C195.673 45.7543 194.795 49.5524 195.815 50.4268C196.835 51.3013 198.147 49.1152 198.147 49.1152C198.75 46.9411 199.021 43.7227 199.021 43.7227C199.021 43.7227 198.949 42.1622 198.147 41.6823Z" stroke="white"/>
<path d="M107.711 33.8958C109.555 30.2179 114.805 30.2179 116.649 33.8958L120.995 42.56C121.715 43.9954 123.08 44.9977 124.665 45.2542L134.246 46.8047C138.25 47.4527 139.857 52.3479 137.016 55.2428L130.054 62.3354C128.949 63.4618 128.44 65.0441 128.682 66.6037L130.203 76.4164C130.829 80.4606 126.598 83.504 122.963 81.6226L114.478 77.2306C113.037 76.4844 111.323 76.4844 109.881 77.2306L101.397 81.6226C97.7623 83.504 93.5304 80.4606 94.1572 76.4164L95.6783 66.6037C95.92 65.0441 95.4112 63.4618 94.3057 62.3354L87.3443 55.2428C84.5029 52.3479 86.1097 47.4527 90.1139 46.8047L99.6945 45.2542C101.28 44.9977 102.645 43.9954 103.365 42.56L107.711 33.8958Z" fill="#FBE969"/>
<circle cx="90.9015" cy="50.3436" r="1.16594" fill="white"/>
<path d="M105.184 43.9309C104.201 46.2151 103.555 47.083 102.124 47.4287C95.8391 47.9536 94.6746 48.4854 94.3993 49.6149C94.7434 50.7242 95.173 50.7965 96.0025 50.7808C99.8434 51.0207 101.791 50.5942 105.184 49.6149C106.07 49.3115 108.465 44.0291 112.034 36.4981C112.46 35.3997 112.447 34.8715 111.743 34.1662C110.954 34.0174 110.622 34.0912 109.848 34.6034L105.184 43.9309Z" fill="white"/>
<path d="M99.2088 66.6667C98.605 66.6321 98.3215 66.9116 97.8971 67.8326C96.7353 70.7387 95.8567 74.5368 96.8769 75.4112C97.8971 76.2857 99.2088 74.0995 99.2088 74.0995C99.8118 71.9255 100.083 68.7071 100.083 68.7071C100.083 68.7071 100.011 67.1466 99.2088 66.6667Z" fill="white"/>
<path d="M105.184 43.9309C104.201 46.2151 103.555 47.083 102.124 47.4287C95.8391 47.9536 94.6746 48.4854 94.3993 49.6149C94.7434 50.7242 95.173 50.7965 96.0025 50.7808C99.8434 51.0207 101.791 50.5942 105.184 49.6149C106.07 49.3115 108.465 44.0291 112.034 36.4981C112.46 35.3997 112.447 34.8715 111.743 34.1662C110.954 34.0174 110.622 34.0912 109.848 34.6034L105.184 43.9309Z" stroke="white"/>
<path d="M99.2088 66.6667C98.605 66.6321 98.3215 66.9116 97.8971 67.8326C96.7353 70.7387 95.8567 74.5368 96.8769 75.4112C97.8971 76.2857 99.2088 74.0995 99.2088 74.0995C99.8118 71.9255 100.083 68.7071 100.083 68.7071C100.083 68.7071 100.011 67.1466 99.2088 66.6667Z" stroke="white"/>
<path d="M28.7598 94.8577C30.6044 91.1798 35.854 91.1798 37.6986 94.8577L42.044 103.522C42.7639 104.957 44.1294 105.96 45.7146 106.216L55.2952 107.767C59.2994 108.415 60.9062 113.31 58.0649 116.205L51.1035 123.297C49.9979 124.424 49.4891 126.006 49.7309 127.566L51.2519 137.378C51.8788 141.422 47.6468 144.466 44.0124 142.585L35.5278 138.193C34.0862 137.446 32.3722 137.446 30.9307 138.193L22.4461 142.585C18.8116 144.466 14.5797 141.422 15.2066 137.378L16.7276 127.566C16.9694 126.006 16.4605 124.424 15.355 123.297L8.39358 116.205C5.55226 113.31 7.15902 108.415 11.1632 107.767L20.7438 106.216C22.329 105.96 23.6946 104.957 24.4145 103.522L28.7598 94.8577Z" fill="#FBE969"/>
<circle cx="11.9508" cy="111.305" r="1.16594" fill="white"/>
<path d="M26.2335 104.893C25.2501 107.177 24.6048 108.045 23.1729 108.391C16.8884 108.915 15.7239 109.447 15.4486 110.577C15.7927 111.686 16.2223 111.758 17.0518 111.743C20.8927 111.983 22.8406 111.556 26.2335 110.577C27.1195 110.273 29.5142 104.991 33.0834 97.46C33.5096 96.3616 33.4963 95.8334 32.7919 95.1281C32.0032 94.9793 31.6717 95.0531 30.8973 95.5653L26.2335 104.893Z" fill="white"/>
<path d="M20.2581 127.629C19.6543 127.594 19.3708 127.873 18.9464 128.795C17.7846 131.701 16.906 135.499 17.9262 136.373C18.9464 137.248 20.2581 135.061 20.2581 135.061C20.8612 132.887 21.1326 129.669 21.1326 129.669C21.1326 129.669 21.0601 128.108 20.2581 127.629Z" fill="white"/>
<path d="M26.2335 104.893C25.2501 107.177 24.6048 108.045 23.1729 108.391C16.8884 108.915 15.7239 109.447 15.4486 110.577C15.7927 111.686 16.2223 111.758 17.0518 111.743C20.8927 111.983 22.8406 111.556 26.2335 110.577C27.1195 110.273 29.5142 104.991 33.0834 97.46C33.5096 96.3616 33.4963 95.8334 32.7919 95.1281C32.0032 94.9793 31.6717 95.0531 30.8973 95.5653L26.2335 104.893Z" stroke="white"/>
<path d="M20.2581 127.629C19.6543 127.594 19.3708 127.873 18.9464 128.795C17.7846 131.701 16.906 135.499 17.9262 136.373C18.9464 137.248 20.2581 135.061 20.2581 135.061C20.8612 132.887 21.1326 129.669 21.1326 129.669C21.1326 129.669 21.0601 128.108 20.2581 127.629Z" stroke="white"/>
<defs>
<linearGradient id="paint0_linear_761_130" x1="203.873" y1="326.796" x2="203.873" y2="355.278" gradientUnits="userSpaceOnUse">
<stop stop-color="#8900FF"/>
<stop offset="1" stop-color="#2A00FF"/>
</linearGradient>
<linearGradient id="paint1_linear_761_130" x1="323.048" y1="153.782" x2="323.048" y2="248.955" gradientUnits="userSpaceOnUse">
<stop stop-color="#8900FF"/>
<stop offset="1" stop-color="#2A00FF"/>
</linearGradient>
<linearGradient id="paint2_linear_761_130" x1="78.4486" y1="176.735" x2="78.4486" y2="258.6" gradientUnits="userSpaceOnUse">
<stop stop-color="#8900FF"/>
<stop offset="1" stop-color="#2A00FF"/>
</linearGradient>
<linearGradient id="paint3_linear_761_130" x1="60.6269" y1="229.879" x2="53.1809" y2="250.295" gradientUnits="userSpaceOnUse">
<stop stop-color="#8900FF"/>
<stop offset="1" stop-color="#2A00FF"/>
</linearGradient>
<linearGradient id="paint4_linear_761_130" x1="35.1715" y1="258.374" x2="32.7841" y2="280.057" gradientUnits="userSpaceOnUse">
<stop stop-color="#8900FF"/>
<stop offset="1" stop-color="#2A00FF"/>
</linearGradient>
<linearGradient id="paint5_linear_761_130" x1="49.0488" y1="247.891" x2="47.1903" y2="264.771" gradientUnits="userSpaceOnUse">
<stop stop-color="#8900FF"/>
<stop offset="1" stop-color="#2A00FF"/>
</linearGradient>
<linearGradient id="paint6_linear_761_130" x1="88.3579" y1="243.861" x2="75.9572" y2="316.075" gradientUnits="userSpaceOnUse">
<stop stop-color="#BCBCBC"/>
<stop offset="1" stop-color="#D9D9D9"/>
</linearGradient>
<linearGradient id="paint7_linear_761_130" x1="99.6039" y1="277.992" x2="99.6039" y2="310.472" gradientUnits="userSpaceOnUse">
<stop stop-color="#8900FF"/>
<stop offset="1" stop-color="#2A00FF"/>
</linearGradient>
<linearGradient id="paint8_linear_761_130" x1="182.728" y1="85.9463" x2="182.728" y2="146.095" gradientUnits="userSpaceOnUse">
<stop stop-color="#8900FF"/>
<stop offset="1" stop-color="#2A00FF"/>
</linearGradient>
<linearGradient id="paint9_linear_761_130" x1="351.811" y1="254.364" x2="369.758" y2="227.335" gradientUnits="userSpaceOnUse">
<stop stop-color="#8900FF"/>
<stop offset="1" stop-color="#2A00FF"/>
</linearGradient>
<linearGradient id="paint10_linear_761_130" x1="332.448" y1="226.44" x2="341.865" y2="200.327" gradientUnits="userSpaceOnUse">
<stop stop-color="#8900FF"/>
<stop offset="1" stop-color="#2A00FF"/>
</linearGradient>
<linearGradient id="paint11_linear_761_130" x1="342.734" y1="240.229" x2="350.004" y2="220.071" gradientUnits="userSpaceOnUse">
<stop stop-color="#8900FF"/>
<stop offset="1" stop-color="#2A00FF"/>
</linearGradient>
<linearGradient id="paint12_linear_761_130" x1="296.731" y1="229.8" x2="336.176" y2="293.064" gradientUnits="userSpaceOnUse">
<stop stop-color="#B7B6B6"/>
<stop offset="1" stop-color="#D9D9D9"/>
</linearGradient>
<linearGradient id="paint13_linear_761_130" x1="288.909" y1="284.681" x2="318.467" y2="284.681" gradientUnits="userSpaceOnUse">
<stop stop-color="#8900FF"/>
<stop offset="1" stop-color="#2A00FF"/>
</linearGradient>
</defs>
</svg>
