<svg width="850" height="765" viewBox="0 0 850 765" fill="none" xmlns="http://www.w3.org/2000/svg">
<path d="M758.574 615.305L731.357 604.563C731.357 604.563 729.792 622.267 730 650.642C730.208 679.017 746.857 671.455 757.218 661.384C767.578 651.313 758.574 615.305 758.574 615.305Z" fill="url(#paint0_linear_169_28)"/>
<path d="M802.82 643.045C806.176 653.382 829.364 654.835 830.743 644.018C833.593 621.661 818.295 592.991 818.295 592.991L797.636 601.986C797.636 601.986 797.629 627.05 802.82 643.045Z" fill="url(#paint1_linear_169_28)"/>
<path d="M767.974 634.624C766.881 646.183 786.745 646.388 787.737 638.402C789.787 621.894 779.271 597.687 779.271 597.687L764.054 604.283C764.054 604.283 769.145 622.236 767.974 634.624Z" fill="url(#paint2_linear_169_28)"/>
<path d="M781.722 462.173C760.279 440.91 671.798 472.669 681.222 526.173C690.646 579.676 702.373 597.104 716.722 614.673C731.072 632.241 825.479 603.204 829.723 582.673C829.762 524.545 803.166 483.435 781.722 462.173Z" fill="#D9D9D9" stroke="#D9D9D9"/>
<path d="M227.362 430.931L245.443 409.271C245.443 409.271 220.832 392.872 208.609 388.74C196.387 384.608 171.728 397.011 190.529 410.399C209.329 423.788 227.362 430.931 227.362 430.931Z" fill="url(#paint3_linear_169_28)"/>
<path d="M180.07 461.785C169.248 460.779 158.743 481.502 168.133 487.046C187.54 498.506 219.923 495.793 219.923 495.793L219.831 473.261C219.831 473.261 196.813 463.342 180.07 461.785Z" fill="url(#paint4_linear_169_28)"/>
<path d="M201.585 433.11C191.4 427.534 183.356 445.698 190.299 449.767C204.65 458.179 231.043 458.093 231.043 458.093L231.002 441.508C231.002 441.508 212.499 439.084 201.585 433.11Z" fill="url(#paint5_linear_169_28)"/>
<path d="M321.155 532.793C347.375 519.861 393.306 467.129 356.247 434.963C319.189 402.797 257.947 392.663 239.657 401.928C219.627 434.469 205.682 471.203 218.861 502.526C232.041 533.849 294.934 545.725 321.155 532.793Z" fill="#D9D9D9" stroke="#D9D9D9"/>
<ellipse cx="333.535" cy="479.534" rx="30" ry="32.5" transform="rotate(30.5759 333.535 479.534)" fill="url(#paint6_linear_169_28)"/>
<path d="M334.022 474C346.552 462.753 359.022 453 367.022 451.5C375.022 450 400.022 459.5 397.022 468.5C394.022 477.5 386.386 490.907 371.522 505C351.271 516.904 310.91 511.878 334.022 474Z" fill="#B7B6B6" stroke="#B7B6B6"/>
<path d="M417.246 620.08C418.366 602.886 420.492 587.092 425.191 581.311C429.89 575.531 454.524 570.447 458.679 580.334C462.834 590.221 469.398 605.183 465.943 627.777C462.488 650.372 427.193 667.468 417.246 620.08Z" fill="#B7B6B6" stroke="#B7B6B6"/>
<path d="M585.341 643.758C585.634 624.913 587.114 607.335 591.986 599.943C596.858 592.552 623.78 581.042 628.911 590.707C634.041 600.371 642.111 614.929 639.537 640.177C636.962 665.425 598.926 692.514 585.341 643.758Z" fill="#B7B6B6" stroke="#B7B6B6"/>
<path d="M474.273 531.277C458.205 522.707 455.108 516.574 453.522 504.749C507.979 488.686 544.75 492.2 605.522 525.971C602.315 533.915 586.328 527.74 574.915 537.172C563.502 546.604 573.061 552.563 567.133 552.499C521.425 552.066 469.604 548.962 477.905 543.067C486.205 537.172 489.836 531.277 486.205 527.74C482.574 524.203 478.923 530.971 474.273 531.277Z" fill="url(#paint7_linear_169_28)"/>
<path d="M422.022 483C407.568 478.311 401.984 456.927 407.522 433.5C536.332 462.191 575.392 430.684 661.341 405.5C680.607 414.77 673.918 438.065 669.522 463.5L661.341 472.5C656.889 489.863 651.678 499.174 624.522 513C618.058 525.519 612.264 527.277 600.522 527C542.436 510.009 511.809 493.109 444.022 513C434.084 502.207 424.642 494.15 422.022 483Z" fill="#B7B6B6" stroke="#B7B6B6"/>
<ellipse cx="388.656" cy="443.588" rx="22.4092" ry="21.6314" transform="rotate(-23.7492 388.656 443.588)" fill="#908D8D"/>
<path d="M603.334 600.085C588.706 602.205 566.831 600.085 566.831 600.085C550.884 600.085 549.487 559.131 566.831 554.81C584.175 550.49 593.337 550.047 609.585 555.671C628.777 570.374 617.963 597.965 603.334 600.085Z" fill="#B7B6B6" stroke="#B7B6B6"/>
<ellipse cx="690.07" cy="437.475" rx="28.6191" ry="27.0924" transform="rotate(21.096 690.07 437.475)" fill="#908D8D"/>
<ellipse cx="449.975" cy="565.301" rx="28.7518" ry="29.5267" transform="rotate(21.096 449.975 565.301)" fill="#908D8D"/>
<ellipse cx="609.975" cy="575.92" rx="28.785" ry="32.2191" transform="rotate(21.096 609.975 575.92)" fill="#908D8D"/>
<path d="M447.022 12L519.522 1L546.022 16.5C591.555 23.647 615.534 31.1158 654.022 54C698.6 80.3584 715.698 100.063 742.522 137.5C757.724 144.83 766.268 147.556 781.522 151.5C804.867 208.17 800.648 252.652 789.022 335C780.23 339.634 771.646 341.491 742.522 342C689.085 415.959 573.829 445.413 519.522 447C423.895 453.336 335.124 410.399 317.522 370.5C313.232 364.745 305.151 361.739 287.522 356.5C226.056 259.658 269.447 211.468 270.022 199.5C273.711 196.53 274.154 194.441 287.522 194C313.196 130.728 337.311 102.619 395.522 64C417.49 41.3506 428.803 29.9151 447.022 12Z" fill="#D9D9D9" stroke="#D9D9D9"/>
<path d="M551.044 289.376C560.557 289.376 574.43 290.624 586.594 302.137C591.956 317.296 591.707 325.795 586.594 340.953C579.173 352.648 572.079 356.441 551.044 355.309C532.017 346.802 525.344 338.21 524.507 320.748C526.259 299.103 541.531 289.376 551.044 289.376Z" fill="black"/>
<path d="M357.773 285.122C373.294 280.288 386.412 280.172 399.023 302.137C407.27 319.446 403.397 328.16 394.324 340.953C380.204 348.539 367.504 349.96 353.023 330.5C340.175 310.512 343.31 300.583 357.773 285.122Z" fill="black"/>
<path d="M551.044 289.376C560.557 289.376 574.43 290.624 586.594 302.137C591.956 317.296 591.707 325.795 586.594 340.953C579.173 352.648 572.079 356.441 551.044 355.309C532.017 346.802 525.344 338.21 524.507 320.748C526.259 299.103 541.531 289.376 551.044 289.376Z" stroke="black"/>
<path d="M357.773 285.122C373.294 280.288 386.412 280.172 399.023 302.137C407.27 319.446 403.397 328.16 394.324 340.953C380.204 348.539 367.504 349.96 353.023 330.5C340.175 310.512 343.31 300.583 357.773 285.122Z" stroke="black"/>
<path d="M331.522 270C357.422 223.766 444.848 192.588 561.522 223.5C627.14 242.855 646.707 304.742 616.522 336C565.608 389.551 483.754 399.155 410.022 379.5C345.873 355.51 306.371 323.771 331.522 270Z" fill="#484848" fill-opacity="0.6"/>
<circle cx="370.522" cy="318.5" r="11" fill="white"/>
<ellipse cx="550.022" cy="327" rx="11.5" ry="12.5" fill="white"/>
<path d="M780.522 151.5C772.725 149.455 767.605 147.689 766.881 151.5C752.369 226.334 751.117 267.248 766.881 337.5C770.599 342.497 780.522 337.5 780.522 337.5C780.522 337.5 771.769 225.927 780.522 151.5Z" fill="url(#paint8_linear_169_28)"/>
<ellipse cx="729.156" cy="491.5" rx="29.5771" ry="30.6846" transform="rotate(59.7887 729.156 491.5)" fill="url(#paint9_linear_169_28)"/>
<path d="M712.317 502.077C700.921 492.664 694.768 473.926 694.768 473.926C692.485 462.251 706.492 434.677 721.342 444.624C736.192 454.572 742.673 461.062 749.42 476.878C751.417 500.971 723.713 511.49 712.317 502.077Z" fill="#B7B6B6" stroke="#B7B6B6"/>
<path d="M460.27 588.587C451.847 567.484 453.789 536.029 472.941 537.553C489.147 538.843 548.437 544.358 566.387 546.626C584.337 548.894 575.945 599.31 560.58 607.866C516.844 632.222 473.49 604.619 460.27 588.587Z" fill="#D9D9D9" stroke="#D9D9D9"/>
<path d="M474.706 644.064C441.907 622.508 408.016 624.132 374.206 644.064C339.367 664.602 290.522 723.064 311.022 735.564C331.522 748.064 509.206 767.564 514.706 735.564C520.206 703.564 507.296 665.482 474.706 644.064Z" fill="#D9D9D9" stroke="#D9D9D9"/>
<path d="M683.632 657.064C650.833 635.508 603.832 637.132 570.022 657.064C535.183 677.602 521.022 736.064 541.522 748.564C562.022 761.064 712.522 777.5 718.022 745.5C723.522 713.5 716.222 678.482 683.632 657.064Z" fill="#D9D9D9" stroke="#D9D9D9"/>
<path d="M286.522 198C286.082 194.647 284.688 193.882 273.522 198C246.092 254.977 251.419 289.714 288.022 356C296.864 358.967 302.275 360.971 300.522 356C269.833 291.613 265.229 256.855 286.522 198Z" fill="url(#paint10_linear_169_28)"/>
<path d="M414.522 62L452.022 20.5L525.022 13.5C541.62 25.5452 549.663 36.0149 561.522 62C539.499 100.859 490.022 119.5 474.522 127C459.022 134.5 447.882 137.687 435.522 127C413.34 103.312 410.277 88.8935 414.522 62Z" fill="url(#paint11_linear_169_28)"/>
<path d="M270.419 421.952C275.403 417.709 276.378 414.742 272.132 407.483L163.73 204.832C160.611 201.674 158.402 200.761 153.09 201.663L6.94351 281.958C3.80213 285.846 2.95821 288.375 4.37926 292.578L114.635 496.381C118.689 499.981 121.532 500.994 126.337 498.669L270.419 421.952Z" fill="#636363" stroke="black" stroke-width="4"/>
<path d="M255.287 399.669C257.281 397.376 257.672 395.991 256.778 393.323L159.125 212.247C156.982 210.472 155.676 210.143 153.145 210.866L13.9733 285.849C12.0419 287.93 11.5732 289.356 12.373 292.562L109.768 473.162C112.137 475.569 113.534 475.778 116.115 474.653L255.287 399.669Z" fill="#9FE1D5" stroke="black" stroke-width="4"/>
<rect width="163.5" height="20.0315" rx="6" transform="matrix(-0.87954 0.475825 0.475825 0.87954 156.794 211.354)" fill="white"/>
<path d="M185.373 452.264C187.169 455.583 191.459 456.855 195.008 454.935C198.557 453.015 199.84 448.728 198.045 445.409C196.25 442.091 191.959 440.819 188.41 442.739C184.861 444.659 183.578 448.946 185.373 452.264Z" fill="#565656" stroke="black" stroke-width="4"/>
<path d="M38.5401 278.412C38.3998 277.949 38.2264 277.93 37.8063 278.193L19.9497 287.854C19.8007 287.982 19.8045 288.169 19.9692 288.459L20.742 289.887C20.9239 290.242 20.924 290.413 20.5235 290.621L18.3807 291.78C18.2384 292.013 18.2603 292.145 18.4002 292.385L21.3627 297.861C21.4947 298.066 21.6502 298.014 21.9677 297.842L24.1105 296.682C24.402 296.522 24.5645 296.478 24.8442 296.901L25.4883 298.091C25.7505 298.664 25.9709 298.788 26.5889 298.419L43.9693 289.017C44.1661 288.804 44.1097 288.606 43.821 288.173L38.5401 278.412Z" fill="black" stroke="black" stroke-opacity="0.58"/>
<path d="M42.6112 288.213L37.8455 279.403L21.1793 288.42L22.0809 290.086C22.2538 290.398 22.172 290.586 21.6243 290.949L19.9577 291.85L22.4049 296.374L24.7858 295.086C25.0971 294.941 25.2842 295.019 25.6484 295.543L26.4212 296.971L42.6112 288.213Z" fill="white" stroke="black"/>
<rect width="3.78974" height="7.03809" transform="matrix(-0.87954 0.475825 0.475825 0.87954 26.4758 287.401)" fill="black"/>
<rect width="3.78974" height="7.03809" transform="matrix(-0.87954 0.475825 0.475825 0.87954 31.7136 284.567)" fill="black"/>
<rect width="3.78974" height="7.03809" transform="matrix(-0.87954 0.475825 0.475825 0.87954 36.9517 281.734)" fill="black"/>
<path d="M156.285 226.115C156.468 225.661 156.339 224.802 155.75 224.558C153.71 223.386 152.452 222.99 149.661 223.543C148.475 223.878 147.793 224.304 146.566 225.218C145.298 227.249 144.976 228.537 145.056 230.959C145.294 231.889 145.583 232.17 146.543 232.001C147.083 231.527 147.228 231.106 147.218 230.405C147.197 228.976 147.299 228.149 148.182 226.498C149.054 225.722 149.558 225.356 150.563 225.21C152.54 224.908 153.207 225.588 154.599 226.412C155.742 226.728 155.959 226.528 156.285 226.115Z" fill="black" stroke="black"/>
<path d="M158.24 222.903C158.346 221.911 158.144 221.48 157.21 220.999C154.412 219.51 152.632 218.99 148.444 219.586C147.571 220.058 145.754 220.994 145.587 221.131C142.579 223.601 141.597 225.426 141.258 229.629C141.181 231.224 141.505 231.538 142.527 231.404C143.127 231.194 143.386 230.983 143.202 229.808C143.409 227.776 143.696 226.724 144.622 225.038C146.159 222.91 147.325 222.184 149.712 221.362C152.311 221.225 153.707 221.516 156.059 222.853C157.37 223.393 157.843 223.399 158.24 222.903Z" fill="black" stroke="black"/>
<ellipse cx="2.43626" cy="2.16557" rx="2.43626" ry="2.16557" transform="matrix(-0.87954 0.475825 0.475825 0.87954 152.655 226.232)" fill="black"/>
<path d="M229.756 291.605C229.791 291.182 229.767 290.958 229.002 290.781L225.224 290.055C224.861 290.065 224.792 290.308 224.767 290.918L225.349 297.682C225.368 298.419 225.446 298.726 225.755 299.001C226.061 298.941 226.234 298.877 226.579 298.248L229.756 291.605Z" fill="white" stroke="white"/>
<path d="M226.131 310.927C226.416 310.402 226.582 310.094 226.451 309.154C225.688 306.717 225.327 305.201 224.799 302.235C224.36 300.372 224.062 299.318 223.185 297.296L189.386 234.43C187.188 232.935 185.876 232.884 183.331 234.799C182.604 236.041 182.498 236.81 182.576 238.245L215.528 300.287C216.626 302.517 217.314 303.584 218.576 305.4L223.969 310.333C224.847 311.094 225.317 311.251 226.109 310.969L226.131 310.927Z" fill="black" stroke="black"/>
<path d="M220.694 301.947C221.155 301.448 221.208 301.144 220.996 300.568L187.681 236.252C187.183 235.599 186.888 235.26 185.907 235.474C184.753 236.302 184.677 236.813 184.907 237.756L219.355 301.209C219.669 301.868 219.988 301.982 220.694 301.947Z" fill="#D9D9D9" stroke="white"/>
<path d="M226.131 310.927C226.416 310.402 226.582 310.094 226.451 309.154C225.688 306.717 225.327 305.201 224.799 302.235C224.36 300.372 224.062 299.318 223.185 297.296L189.386 234.43C187.188 232.935 185.876 232.884 183.331 234.799C182.604 236.041 182.498 236.81 182.576 238.245L215.528 300.287C216.626 302.517 217.314 303.584 218.576 305.4L223.969 310.333C224.847 311.094 225.317 311.251 226.109 310.969L226.131 310.927Z" fill="black" stroke="black"/>
<path d="M223.687 304.77C224.053 304.404 224.252 304.194 224.243 303.503C223.638 301.158 223.112 299.648 221.41 296.519C209.187 272.668 201.501 259.264 188.799 235.08C187.152 234.064 186.15 234.063 184.219 235.188C183.494 236.219 183.312 236.806 183.488 237.89L216.78 300.534C217.457 301.872 217.922 302.607 218.933 303.895L220.628 305.545C221.032 305.869 221.315 305.898 221.88 305.791L223.687 304.77Z" fill="white" stroke="white"/>
<defs>
<linearGradient id="paint0_linear_169_28" x1="729.688" y1="605.322" x2="756.585" y2="664.419" gradientUnits="userSpaceOnUse">
<stop stop-color="#2A00FF"/>
<stop offset="1" stop-color="#8900FF"/>
</linearGradient>
<linearGradient id="paint1_linear_169_28" x1="831.984" y1="645.647" x2="797.611" y2="602.006" gradientUnits="userSpaceOnUse">
<stop stop-color="#2A00FF"/>
<stop offset="1" stop-color="#8900FF"/>
</linearGradient>
<linearGradient id="paint2_linear_169_28" x1="789.837" y1="638.563" x2="763.303" y2="604.875" gradientUnits="userSpaceOnUse">
<stop stop-color="#2A00FF"/>
<stop offset="1" stop-color="#8900FF"/>
</linearGradient>
<linearGradient id="paint3_linear_169_28" x1="245.434" y1="408.81" x2="183.892" y2="410.074" gradientUnits="userSpaceOnUse">
<stop stop-color="#2A00FF"/>
<stop offset="1" stop-color="#8900FF"/>
</linearGradient>
<linearGradient id="paint4_linear_169_28" x1="166.146" y1="487.543" x2="219.823" y2="473.229" gradientUnits="userSpaceOnUse">
<stop stop-color="#2A00FF"/>
<stop offset="1" stop-color="#8900FF"/>
</linearGradient>
<linearGradient id="paint5_linear_169_28" x1="189.32" y1="451.633" x2="230.755" y2="440.584" gradientUnits="userSpaceOnUse">
<stop stop-color="#2A00FF"/>
<stop offset="1" stop-color="#8900FF"/>
</linearGradient>
<linearGradient id="paint6_linear_169_28" x1="333.535" y1="447.034" x2="333.535" y2="512.034" gradientUnits="userSpaceOnUse">
<stop stop-color="#2A00FF"/>
<stop offset="1" stop-color="#8900FF"/>
</linearGradient>
<linearGradient id="paint7_linear_169_28" x1="529.522" y1="495.5" x2="529.522" y2="552.5" gradientUnits="userSpaceOnUse">
<stop stop-color="#2A00FF"/>
<stop offset="1" stop-color="#8900FF"/>
</linearGradient>
<linearGradient id="paint8_linear_169_28" x1="768.022" y1="149.256" x2="768.022" y2="339.721" gradientUnits="userSpaceOnUse">
<stop stop-color="#2A00FF"/>
<stop offset="1" stop-color="#8900FF"/>
</linearGradient>
<linearGradient id="paint9_linear_169_28" x1="729.156" y1="460.815" x2="729.156" y2="522.185" gradientUnits="userSpaceOnUse">
<stop stop-color="#2A00FF"/>
<stop offset="1" stop-color="#8900FF"/>
</linearGradient>
<linearGradient id="paint10_linear_169_28" x1="278.518" y1="195.191" x2="278.518" y2="359.023" gradientUnits="userSpaceOnUse">
<stop stop-color="#2A00FF"/>
<stop offset="1" stop-color="#8900FF"/>
</linearGradient>
<linearGradient id="paint11_linear_169_28" x1="487.207" y1="13.5" x2="487.207" y2="133.872" gradientUnits="userSpaceOnUse">
<stop stop-color="#2A00FF"/>
<stop offset="1" stop-color="#8900FF"/>
</linearGradient>
</defs>
</svg>
