<svg width="260" height="302" viewBox="0 0 260 302" fill="none" xmlns="http://www.w3.org/2000/svg">
<path d="M105.169 5.32233L133.07 1L143.268 7.09056C160.791 9.89889 170.018 12.8337 184.83 21.8258C201.985 32.183 208.565 39.9256 218.888 54.6362C224.738 57.5164 228.026 58.5877 233.896 60.1373C242.88 82.4051 241.257 99.8837 236.783 132.242C233.399 134.063 230.096 134.792 218.888 134.992C198.323 164.054 153.969 175.627 133.07 176.251C96.2693 178.74 62.1073 161.869 55.3335 146.191C53.6825 143.93 50.5727 142.748 43.7884 140.69C20.1339 102.637 36.8324 83.7012 37.0538 78.9984C38.4734 77.8315 38.6438 77.0105 43.7884 76.8372C53.6687 51.9752 62.9488 40.9301 85.3505 25.7552C93.8045 16.8553 98.1582 12.3619 105.169 5.32233Z" fill="#D9D9D9" stroke="#D9D9D9"/>
<path d="M60.894 106.703C70.8551 88.4493 104.479 76.1398 149.352 88.3444C174.588 95.9858 182.114 120.42 170.505 132.761C150.923 153.903 119.442 157.695 91.085 149.935C66.4133 140.464 51.2207 127.933 60.894 106.703Z" fill="#484848" fill-opacity="0.6"/>
<path d="M225.097 242.511L214.627 238.288C214.627 238.288 214.025 245.248 214.105 256.404C214.185 267.559 220.59 264.586 224.575 260.627C228.561 256.668 225.097 242.511 225.097 242.511Z" fill="#148BFB"/>
<path d="M242.118 253.417C243.409 257.481 252.329 258.052 252.86 253.8C253.956 245.01 248.071 233.739 248.071 233.739L240.124 237.275C240.124 237.275 240.121 247.129 242.118 253.417Z" fill="#148BFB"/>
<path d="M228.713 250.106C228.292 254.651 235.934 254.731 236.315 251.592C237.104 245.102 233.059 235.585 233.059 235.585L227.205 238.178C227.205 238.178 229.163 245.236 228.713 250.106Z" fill="#148BFB"/>
<path d="M233.888 182.426C225.655 174.084 191.683 186.543 195.301 207.533C198.92 228.523 203.422 235.36 208.932 242.253C214.441 249.145 250.688 237.753 252.317 229.699C252.333 206.895 242.121 190.767 233.888 182.426Z" fill="#D9D9D9" stroke="#D9D9D9"/>
<path d="M28.1018 138.85L36.7158 132.018C36.7158 132.018 28.844 123.697 24.5978 121.105C20.3516 118.514 10.0429 121.251 15.9838 127.938C21.9247 134.625 28.1018 138.85 28.1018 138.85Z" fill="#148BFB"/>
<path d="M7.73729 146.814C3.75489 145.538 -1.93328 152.634 1.12968 155.535C7.4606 161.531 19.8583 163.151 19.8583 163.151L21.7163 154.489C21.7163 154.489 13.899 148.788 7.73729 146.814Z" fill="#148BFB"/>
<path d="M18.2314 137.569C14.8721 134.59 10.3236 140.905 12.5912 143.039C17.278 147.449 27.2038 149.585 27.2038 149.585L28.5813 143.212C28.5813 143.212 21.8314 140.76 18.2314 137.569Z" fill="#148BFB"/>
<path d="M93.7916 244.388C94.2224 237.629 95.0402 231.419 96.8479 229.147C98.6557 226.874 108.132 224.875 109.73 228.762C111.328 232.649 113.854 238.532 112.525 247.415C111.196 256.298 97.618 263.019 93.7916 244.388Z" fill="#B7B6B6" stroke="#B7B6B6"/>
<path d="M158.456 253.697C158.569 246.289 159.138 239.378 161.012 236.472C162.887 233.566 173.243 229.041 175.217 232.84C177.191 236.64 180.295 242.363 179.305 252.289C178.314 262.216 163.682 272.865 158.456 253.697Z" fill="#B7B6B6" stroke="#B7B6B6"/>
<path d="M115.616 209.504C109.421 206.118 108.226 203.696 107.615 199.024C128.613 192.679 142.791 194.067 166.225 207.408C164.988 210.546 158.823 208.107 154.423 211.832C150.022 215.558 153.708 217.912 151.422 217.887C133.798 217.716 113.816 216.49 117.017 214.161C120.217 211.832 121.617 209.504 120.217 208.107C118.817 206.709 117.409 209.383 115.616 209.504Z" fill="#075EB0"/>
<path d="M95.7829 190.56C90.2292 188.707 88.0841 180.259 90.2119 171.003C139.701 182.338 154.708 169.89 187.73 159.94C195.133 163.603 192.562 172.807 190.874 182.855L187.73 186.411C186.02 193.271 184.018 196.95 173.585 202.412C171.101 207.358 168.875 208.053 164.364 207.943C142.047 201.23 130.279 194.553 104.235 202.412C100.417 198.148 96.7893 194.965 95.7829 190.56Z" fill="#B7B6B6" stroke="#B7B6B6"/>
<ellipse cx="8.65161" cy="8.47489" rx="8.65161" ry="8.47489" transform="matrix(0.912036 -0.410111 0.395439 0.918492 71.5518 170.765)" fill="#908D8D"/>
<path d="M165.378 236.527C159.751 237.361 151.336 236.527 151.336 236.527C145.201 236.527 144.664 220.426 151.336 218.728C158.008 217.029 161.532 216.855 167.783 219.066C175.166 224.847 171.005 235.694 165.378 236.527Z" fill="#B7B6B6" stroke="#B7B6B6"/>
<ellipse cx="11.0411" cy="10.6218" rx="11.0411" ry="10.6218" transform="matrix(0.930304 0.366789 -0.353165 0.935561 192.224 158.611)" fill="#908D8D"/>
<ellipse cx="11.0923" cy="11.5762" rx="11.0923" ry="11.5762" transform="matrix(0.930304 0.366789 -0.353165 0.935561 100.151 207.953)" fill="#908D8D"/>
<ellipse cx="11.1051" cy="12.6318" rx="11.1051" ry="12.6318" transform="matrix(0.930304 0.366789 -0.353165 0.935561 162.062 211.136)" fill="#908D8D"/>
<path d="M92.6813 25.0456L107.134 8.72065L135.27 5.96704C141.667 10.7053 144.767 14.8238 149.338 25.0456C140.849 40.3318 121.78 47.6646 115.806 50.6149C109.832 53.5652 105.539 54.8189 100.775 50.6149C92.2255 41.2966 91.045 35.6248 92.6813 25.0456Z" fill="#075EB0"/>
<path d="M91.3901 112.61C84.8438 112.059 77.814 122.544 77.814 122.544C77.814 122.544 85.7326 117.067 91.3901 117.412C96.2719 117.709 102.814 122.544 102.814 122.544C102.814 122.544 97.2813 113.107 91.3901 112.61Z" fill="black" stroke="black"/>
<path d="M132.781 112.632C126.235 112.08 119.205 122.565 119.205 122.565C119.205 122.565 127.124 117.088 132.781 117.433C137.663 117.73 144.205 122.565 144.205 122.565C144.205 122.565 138.672 113.128 132.781 112.632Z" fill="black" stroke="black"/>
<path d="M233.443 60.1595C230.448 59.3563 228.482 58.6624 228.204 60.1595C222.629 89.5622 222.149 105.638 228.204 133.24C229.632 135.203 233.443 133.24 233.443 133.24C233.443 133.24 230.081 89.4024 233.443 60.1595Z" fill="#148BFB"/>
<ellipse cx="11.5653" cy="11.8703" rx="11.5653" ry="11.8703" transform="matrix(0.495041 0.868869 -0.859354 0.511382 218.256 177.719)" fill="#075EB0"/>
<path d="M207.187 197.995C202.796 194.284 200.425 186.898 200.425 186.898C199.545 182.296 204.942 171.426 210.664 175.347C216.386 179.269 218.884 181.827 221.483 188.062C222.253 197.559 211.578 201.706 207.187 197.995Z" fill="#B7B6B6" stroke="#B7B6B6"/>
<path d="M43.4825 78.5914C43.3127 77.2767 42.7752 76.9767 38.4711 78.5914C27.8969 100.932 29.9503 114.553 44.0607 140.543C47.4693 141.707 49.5551 142.492 48.8793 140.543C37.049 115.297 35.2743 101.668 43.4825 78.5914Z" fill="#148BFB"/>
<path d="M54.7945 185.681C65.7345 182.869 87.4248 166.391 76.1993 150.991C64.9738 135.592 42.81 126.667 35.1581 128.722C24.8977 139.574 16.5719 152.536 18.894 165.649C21.216 178.763 43.8544 188.493 54.7945 185.681Z" fill="url(#paint0_linear_727_119)" stroke="#D9D9D9"/>
<ellipse cx="11.6069" cy="12.7067" rx="11.6069" ry="12.7067" transform="matrix(0.725858 0.687845 -0.673898 0.738825 64.0586 148.872)" fill="#075EB0"/>
<path d="M110.428 232.015C107.201 223.717 107.945 211.349 115.282 211.948C121.491 212.455 144.206 214.624 151.083 215.516C157.96 216.407 154.745 236.232 148.859 239.596C132.102 249.173 115.493 238.319 110.428 232.015Z" fill="#D9D9D9" stroke="#D9D9D9"/>
<path d="M69.8664 159.456C75.1801 163.193 79.919 167.034 81.1452 169.895C82.3714 172.756 80.7929 182.882 77.1154 182.514C73.4379 182.146 67.7007 180.415 61.1109 176.044C54.9155 169.479 53.5317 153.992 69.8664 159.456Z" fill="#B7B6B6" stroke="#B7B6B6"/>
<path d="M115.908 253.816C103.276 245.33 90.2222 245.969 77.2 253.816C63.7815 261.901 44.9687 284.915 52.8644 289.836C60.7602 294.757 129.196 302.433 131.315 289.836C133.433 277.239 128.461 262.247 115.908 253.816Z" fill="#D9D9D9" stroke="#D9D9D9"/>
<path d="M196.395 258.794C183.779 250.293 165.699 250.933 152.693 258.794C139.292 266.894 133.845 289.952 141.73 294.882C149.616 299.812 207.508 306.294 209.624 293.674C211.74 281.053 208.932 267.241 196.395 258.794Z" fill="#D9D9D9" stroke="#D9D9D9"/>
<defs>
<linearGradient id="paint0_linear_727_119" x1="49.536" y1="128.556" x2="48.9129" y2="186.151" gradientUnits="userSpaceOnUse">
<stop stop-color="#B7B6B6"/>
<stop offset="1" stop-color="#D9D9D9"/>
</linearGradient>
</defs>
</svg>
