<svg width="386" height="334" viewBox="0 0 386 334" fill="none" xmlns="http://www.w3.org/2000/svg">
<path d="M298.525 0.920994C245.325 -3.60654 222.201 8.29647 191.917 42.4532C156.725 11.6481 137.458 -1.28569 91.6572 0.920994C42.9999 13.3926 25.3758 29.5508 7.27001 71.0232C-8.53429 130.158 0.848478 160.556 41.1307 211.228C90.2935 259.528 121.7 283.788 179.483 325.772C193.08 337.757 199.538 335.24 210.434 325.772C263.472 286.041 293.098 263.041 344.29 211.228C388.297 157.616 392.962 126.816 378.15 71.0232C357.732 30.0983 340.847 14.0294 298.525 0.920994Z" fill="#FF0000"/>
<circle cx="226.665" cy="331.464" r="2.38083" fill="white"/>
<circle cx="289.096" cy="331.464" r="2.38083" fill="white"/>
<path d="M349.939 118.248C365.588 157.696 364.324 184.447 353.114 233.586L343.675 238.537L341.739 239.553L336.977 242.051L320.84 250.516C220.19 292.177 161.271 290.247 71.3824 250.516L42.0188 233.586C20.1668 189.162 18.1533 164.258 42.0188 119.835L65.298 110.312C74.4354 92.8628 83.0563 82.9115 111.063 64.5469L146.511 30.4217L157.621 25.3955H218.2L228.517 37.0351C284.384 57.8492 305.196 74.1084 325.867 110.312C326.934 110.463 327.944 110.606 328.91 110.756C331.847 111.21 336.977 112.7 336.977 112.7C336.977 112.7 339.087 113.733 341.739 115.3C343.864 116.555 347.924 116.565 349.939 118.248Z" fill="#D9D9D9"/>
<path d="M348.617 120.629C345.936 117.5 344.339 117.015 341.21 118.512C332.291 165.367 331.031 190.652 343.061 231.999C345.636 232.506 346.909 232.046 348.617 228.824C341.16 188.354 342.444 164.925 348.617 120.629Z" fill="url(#paint0_linear_757_99)"/>
<ellipse cx="186.985" cy="176.71" rx="110.312" ry="67.7214" fill="#484848" fill-opacity="0.6"/>
<path d="M48.5972 120.336C50.9739 119.433 52.3044 119.204 54.6819 120.336C36.6142 156.157 37.3837 181.984 50.7138 234.351C46.9776 233.024 44.1136 231.93 42.5128 228.002C27.1226 184.16 25.7824 153.358 48.5972 120.336Z" fill="url(#paint1_linear_757_99)"/>
<ellipse cx="232.75" cy="324.586" rx="6.34888" ry="6.08434" fill="white"/>
<ellipse cx="284.07" cy="324.586" rx="6.34888" ry="6.08434" fill="white"/>
<path d="M139.492 163.533C124.253 162.243 107.888 186.763 107.888 186.763C107.888 186.763 126.322 173.955 139.492 174.761C150.857 175.456 166.086 186.763 166.086 186.763C166.086 186.763 153.207 164.693 139.492 163.533Z" fill="black" stroke="black"/>
<path d="M236.313 163.533C221.074 162.243 204.709 186.763 204.709 186.763C204.709 186.763 223.143 173.955 236.313 174.761C247.677 175.456 262.907 186.763 262.907 186.763C262.907 186.763 250.027 164.693 236.313 163.533Z" fill="black" stroke="black"/>
<path d="M79.8144 234.59C62.3343 239.083 27.6775 265.412 45.6137 290.017C63.5498 314.622 98.9631 328.883 111.189 325.6C127.584 308.26 140.886 287.549 137.176 266.597C133.466 245.644 97.2944 230.097 79.8144 234.59Z" fill="url(#paint2_linear_757_99)" stroke="#D9D9D9"/>
<path d="M291.506 235.648C308.986 240.141 343.643 266.47 325.707 291.075C307.771 315.68 272.357 329.941 260.131 326.658C243.737 309.318 230.434 288.607 234.144 267.655C237.854 246.702 274.026 231.155 291.506 235.648Z" fill="url(#paint3_linear_757_99)" stroke="#D9D9D9"/>
<path d="M77.5039 241.717L93.3649 249.451C99.4654 241.421 102.56 236.737 105.7 227.035C106.915 222.755 105.831 221.457 102.932 219.743C97.1706 219.14 95.5043 219.632 92.7235 220.61C90.0452 221.946 88.9054 222.659 87.8285 223.834C82.2717 230.622 80.319 234.577 77.5039 241.717Z" fill="url(#paint4_linear_757_99)"/>
<path d="M292.785 247.537L276.924 255.27C270.823 247.241 267.729 242.557 264.589 232.854C263.374 228.575 264.457 227.277 267.356 225.562C273.118 224.96 274.785 225.452 277.565 226.43C280.244 227.766 281.383 228.479 282.46 229.654C288.017 236.442 289.97 240.396 292.785 247.537Z" fill="url(#paint5_linear_757_99)"/>
<path d="M109.783 255.105L100.721 250.628C102.444 244.344 103.352 240.802 107.739 235.454C110.966 233.182 113.148 233.684 117.627 237.698C117.241 245.062 114.83 248.726 109.783 255.105Z" fill="url(#paint6_linear_757_99)"/>
<path d="M269.316 257.214L260.015 261.171C256.371 255.769 254.276 252.773 253.078 245.96C253.458 242.032 255.259 240.704 261.223 239.922C266.558 245.013 267.766 249.229 269.316 257.214Z" fill="url(#paint7_linear_757_99)"/>
<path d="M133.267 264.537L120.586 258.055C121.93 250.121 122.253 249.902 125.959 241.992C128.282 238.188 129.815 237.173 133.267 238.892C135.52 241.132 136.671 242.507 137.78 245.937C138.863 248.909 138.816 250.573 137.78 253.546C136.177 259.593 135.135 261.406 133.267 264.537Z" fill="url(#paint8_linear_757_99)"/>
<path d="M239.116 270.886L251.796 264.404C250.452 256.469 250.129 256.251 246.423 248.34C244.1 244.536 242.567 243.522 239.116 245.241C236.862 247.481 235.711 248.856 234.602 252.286C233.52 255.258 233.566 256.922 234.602 259.895C236.205 265.941 237.248 267.755 239.116 270.886Z" fill="url(#paint9_linear_757_99)"/>
<path d="M201.312 34.9188H159.516L144.966 49.4684L180.414 68.515L216.126 49.4684L201.312 34.9188Z" fill="url(#paint10_linear_757_99)" stroke="url(#paint11_linear_757_99)"/>
<defs>
<linearGradient id="paint0_linear_757_99" x1="341.447" y1="117.697" x2="341.447" y2="232.174" gradientUnits="userSpaceOnUse">
<stop stop-color="#8900FF"/>
<stop offset="1" stop-color="#2A00FF"/>
</linearGradient>
<linearGradient id="paint1_linear_757_99" x1="42.9273" y1="119.571" x2="42.9273" y2="234.351" gradientUnits="userSpaceOnUse">
<stop stop-color="#8900FF"/>
<stop offset="1" stop-color="#2A00FF"/>
</linearGradient>
<linearGradient id="paint2_linear_757_99" x1="88.2164" y1="325.864" x2="89.212" y2="233.838" gradientUnits="userSpaceOnUse">
<stop stop-color="#B7B6B6"/>
<stop offset="1" stop-color="#D9D9D9"/>
</linearGradient>
<linearGradient id="paint3_linear_757_99" x1="283.104" y1="326.922" x2="282.108" y2="234.896" gradientUnits="userSpaceOnUse">
<stop stop-color="#B7B6B6"/>
<stop offset="1" stop-color="#D9D9D9"/>
</linearGradient>
<linearGradient id="paint4_linear_757_99" x1="101.022" y1="218.64" x2="85.1496" y2="246.131" gradientUnits="userSpaceOnUse">
<stop stop-color="#8900FF"/>
<stop offset="1" stop-color="#2A00FF"/>
</linearGradient>
<linearGradient id="paint5_linear_757_99" x1="269.267" y1="224.459" x2="285.139" y2="251.951" gradientUnits="userSpaceOnUse">
<stop stop-color="#8900FF"/>
<stop offset="1" stop-color="#2A00FF"/>
</linearGradient>
<linearGradient id="paint6_linear_757_99" x1="113.154" y1="234.519" x2="106.056" y2="253.727" gradientUnits="userSpaceOnUse">
<stop stop-color="#8900FF"/>
<stop offset="1" stop-color="#2A00FF"/>
</linearGradient>
<linearGradient id="paint7_linear_757_99" x1="255.897" y1="241.243" x2="265.842" y2="259.144" gradientUnits="userSpaceOnUse">
<stop stop-color="#8900FF"/>
<stop offset="1" stop-color="#2A00FF"/>
</linearGradient>
<linearGradient id="paint8_linear_757_99" x1="129.58" y1="238.083" x2="129.58" y2="264.537" gradientUnits="userSpaceOnUse">
<stop stop-color="#8900FF"/>
<stop offset="1" stop-color="#2A00FF"/>
</linearGradient>
<linearGradient id="paint9_linear_757_99" x1="242.802" y1="244.432" x2="242.802" y2="270.886" gradientUnits="userSpaceOnUse">
<stop stop-color="#8900FF"/>
<stop offset="1" stop-color="#2A00FF"/>
</linearGradient>
<linearGradient id="paint10_linear_757_99" x1="180.546" y1="34.9188" x2="180.546" y2="68.515" gradientUnits="userSpaceOnUse">
<stop stop-color="#8900FF"/>
<stop offset="1" stop-color="#2A00FF"/>
</linearGradient>
<linearGradient id="paint11_linear_757_99" x1="180.546" y1="34.9188" x2="180.546" y2="68.515" gradientUnits="userSpaceOnUse">
<stop stop-color="#8900FF"/>
<stop offset="1" stop-color="#2A00FF"/>
</linearGradient>
</defs>
</svg>
